<svg x="0" y="0" width="600" height="300" viewBox="0 0 700 350" xmlns="http://www.w3.org/2000/svg" xmlns:xlink="http://www.w3.org/1999/xlink" xmlns:fi="http://pattern.flaticon.com/"><rect x="0px" y="0px" width="100%" height="100%" opacity="0" fill="#f7f7f7"/><defs><g transform="matrix(0.05707065761089325 0.01037648320198059 -0.01037648320198059 0.05707065761089325 245.79339599609375 309.81268310546875)" id="L1_177"><path d="M408,296c-32.912,0-60.68,22.224-69.232,52.44l-63.64-31.824C278.232,307.632,280,298.032,280,288    c0-21.4-7.696-41.032-20.448-56.304l102.824-104.04C374.808,137.856,390.696,144,408,144c39.696,0,72-32.296,72-72    S447.696,0,408,0c-39.696,0-72,32.296-72,72c0,16.64,5.728,31.944,15.248,44.152L248.232,220.384    C232.968,207.672,213.368,200,192,200c-16.392,0-31.688,4.584-44.848,12.424l-47.616-95.232C116.688,105.696,128,86.144,128,64    c0-35.288-28.712-64-64-64S0,28.712,0,64s28.712,64,64,64c7.44,0,14.56-1.344,21.208-3.688l48.824,97.648    C115.672,238.096,104,261.688,104,288c0,21.384,7.688,41,20.416,56.272L75.768,392.92C67.92,387.328,58.352,384,48,384    c-26.472,0-48,21.528-48,48s21.528,48,48,48s48-21.528,48-48c0-10.352-3.328-19.92-8.92-27.768l48.648-48.648    C151,368.312,170.616,376,192,376c32.808,0,61.432-18.08,76.56-44.776l67.584,33.792c-0.032,1-0.144,1.976-0.144,2.984    c0,39.704,32.304,72,72,72s72-32.296,72-72C480,328.296,447.696,296,408,296z M408,16c30.88,0,56,25.128,56,56s-25.12,56-56,56    s-56-25.128-56-56S377.12,16,408,16z M64,112c-26.472,0-48-21.528-48-48s21.528-48,48-48s48,21.528,48,48S90.472,112,64,112z     M48,464c-17.648,0-32-14.352-32-32s14.352-32,32-32s32,14.352,32,32S65.648,464,48,464z M192,360c-39.696,0-72-32.296-72-72    c0-39.704,32.304-72,72-72s72,32.296,72,72C264,327.704,231.696,360,192,360z M408,424c-30.88,0-56-25.128-56-56s25.12-56,56-56    s56,25.128,56,56S438.88,424,408,424z" fill="#e6e6e6"/><path d="M264,0c-22.056,0-40,17.944-40,40c0,22.056,17.944,40,40,40c22.056,0,40-17.944,40-40C304,17.944,286.056,0,264,0z     M264,64c-13.232,0-24-10.768-24-24s10.768-24,24-24s24,10.768,24,24S277.232,64,264,64z" fill="#e6e6e6"/><path d="M184,96c-22.056,0-40,17.944-40,40c0,22.056,17.944,40,40,40c22.056,0,40-17.944,40-40C224,113.944,206.056,96,184,96z     M184,160c-13.232,0-24-10.768-24-24s10.768-24,24-24s24,10.768,24,24S197.232,160,184,160z" fill="#e6e6e6"/><path d="M52,272c-19.848,0-36,16.152-36,36c0,19.848,16.152,36,36,36s36-16.152,36-36C88,288.152,71.848,272,52,272z M52,328    c-11.024,0-20-8.968-20-20c0-11.032,8.976-20,20-20s20,8.968,20,20C72,319.032,63.024,328,52,328z" fill="#e6e6e6"/><path d="M24,176c-13.232,0-24,10.768-24,24s10.768,24,24,24s24-10.768,24-24S37.232,176,24,176z M24,208c-4.408,0-8-3.584-8-8    s3.592-8,8-8s8,3.584,8,8S28.408,208,24,208z" fill="#e6e6e6"/><path d="M360,192c-26.472,0-48,21.528-48,48s21.528,48,48,48s48-21.528,48-48S386.472,192,360,192z M360,272    c-17.648,0-32-14.352-32-32s14.352-32,32-32s32,14.352,32,32S377.648,272,360,272z" fill="#e6e6e6"/><path d="M248,384c-26.472,0-48,21.528-48,48s21.528,48,48,48s48-21.528,48-48S274.472,384,248,384z M248,464    c-17.648,0-32-14.352-32-32s14.352-32,32-32s32,14.352,32,32S265.648,464,248,464z" fill="#e6e6e6"/><path d="M448,152c-17.648,0-32,14.352-32,32s14.352,32,32,32s32-14.352,32-32S465.648,152,448,152z M448,200    c-8.824,0-16-7.176-16-16c0-8.824,7.176-16,16-16c8.824,0,16,7.176,16,16C464,192.824,456.824,200,448,200z" fill="#e6e6e6"/></g><g transform="matrix(0.07812051475048065 0 0 0.07812051475048065 86.2510757446289 31.251075744628906)" id="L1_178"><rect x="280px" y="264px" width="16px" height="16px" fill="#e6e6e6"/><path d="M480,272V48c0-22.056-17.944-40-40-40H128C83.888,8,48,43.888,48,88c0,26.408,12.912,49.792,32.696,64.368    C35.584,156.104,0,193.944,0,240v7.68V464v0.768h0.152C0.56,468.808,3.856,472,8,472h184c4.416,0,8-3.584,8-8V351.16    c8.4,8.576,19.56,14.408,32,16.2V368h8h100h124v32h-32v16h16v56h16v-56h8c4.416,0,8-3.584,8-8v-48c0-4.416-3.584-8-8-8H369.904    c3.84-5.728,6.096-12.6,6.096-20c0-7.4-2.256-14.272-6.096-20H440C462.056,312,480,294.056,480,272z M440,24    c13.232,0,24,10.768,24,24v184h-36.896l10.016-30.032c7.432-22.304,5.736-46.16-4.776-67.184l-7.696-15.392l0.384-1.16    c9.768-29.288,0.144-61.928-23.968-81.224L397,33.76c-2.92-2.336-7.072-2.336-10,0l-4.04,3.232    c-24.112,19.288-33.752,51.92-23.992,81.216l0.392,1.176l-7.696,15.392c-10.512,21.024-12.208,44.888-4.776,67.184L356.904,232    H320v-72h-0.064c0-1-0.12-2.008-0.504-2.976l-32-80C286.208,73.992,283.272,72,280,72c-3.272,0-6.208,1.992-7.432,5.024l-32,80    c-0.384,0.968-0.504,1.976-0.504,2.976H240v29.56c-14.616-20.8-37.968-34.976-64.696-37.192C195.088,137.792,208,114.408,208,88    c0-26.184-12.704-49.4-32.2-64H440z M390.056,103.76c0.648,0.16,1.296,0.24,1.944,0.24c2.096,0,4.136-0.824,5.656-2.344l3.92-3.92    l10.616,5.312c-0.424,3.008-1.056,6-1.976,8.96h-36.44c-1.312-4.24-1.96-8.56-2.272-12.872L390.056,103.76z M372.608,82.904    c2.64-12.512,9.224-24.144,19.392-32.64c10.736,8.968,17.544,21.408,19.848,34.72l-8.272-4.136c-3.08-1.528-6.8-0.928-9.232,1.504    l-4.8,4.8L372.608,82.904z M372.944,128h38.112l6.968,13.936c0.336,0.68,0.592,1.376,0.912,2.064h-53.864    c0.312-0.68,0.568-1.384,0.904-2.064L372.944,128z M424.184,160c2.456,12.168,1.784,24.808-2.248,36.904L410.232,232H373.76    l-11.688-35.096c-4.032-12.096-4.712-24.736-2.248-36.904H424.184z M267.576,144.848C266.456,144.28,265.224,144,264,144    c-0.336,0-0.672,0.016-1.008,0.064L280,101.536l17.008,42.52c-1.552-0.208-3.16,0.072-4.584,0.784L280,151.056L267.576,144.848z     M272,164.944V232h-16v-67.056l8-4L272,164.944z M288,164.944l8-4l8,4V232h-16V164.944z M64,88c0-35.288,28.712-64,64-64    s64,28.712,64,64c0,14.872-5.144,28.544-13.688,39.424C163.384,124.728,152,111.696,152,96h-16    c0,19.744,11.984,36.72,29.048,44.088C154.584,147.56,141.816,152,128,152C92.712,152,64,123.288,64,88z M152,456H16V256    l112.344-0.008c7.296-0.304,14.024,2.032,18.608,6.416c2.304,2.208,5.048,5.912,5.048,11.024V456z M340,352H240    c-22.056,0-40-17.944-40-40v-72h-16v216h-16V273.432c0-8.392-3.544-16.416-9.984-22.576c-7.72-7.4-18.832-11.328-30.016-10.856H16    c0-39.696,32.304-72,72-72h80c39.696,0,72,32.304,72,72v64c0,4.416,3.584,8,8,8h92c11.024,0,20,8.976,20,20S351.024,352,340,352z     M340,296h-84v-48h112h48h48v24c0,13.232-10.768,24-24,24H340z" fill="#e6e6e6"/></g><g transform="matrix(0.06222028285264969 0 0 0.06222028285264969 147.067138671875 186.067138671875)" id="L1_179"><path d="M472,0h-24H168h-56H96H80H64H48H32H8C3.576,0,0,3.576,0,8v464c0,4.424,3.576,8,8,8h464c4.424,0,8-3.576,8-8V8    C480,3.576,476.424,0,472,0z M464,464H16V80h448V464z M464,64H16V16h16h16h16h16h16h16h56h280h16V64z" fill="#e6e6e6"/><rect x="32px" y="32px" width="16px" height="16px" fill="#e6e6e6"/><rect x="64px" y="32px" width="16px" height="16px" fill="#e6e6e6"/><rect x="96px" y="32px" width="16px" height="16px" fill="#e6e6e6"/><rect x="208px" y="32px" width="240px" height="16px" fill="#e6e6e6"/><path d="M343.192,153.448c-21.16-21.16-49.28-32.808-79.192-32.808c-29.912,0-58.04,11.648-79.192,32.808    C163.648,174.592,152,202.72,152,232.64c0,27.224,9.744,52.904,27.424,73.264l-96.44,96.44l11.312,11.312l96.448-96.448    c20.968,18.176,47.08,27.384,73.248,27.384c28.68,0,57.36-10.92,79.192-32.752C364.352,290.68,376,262.552,376,232.64    C376,202.72,364.352,174.592,343.192,153.448z M331.88,300.52c-37.432,37.416-98.336,37.432-135.768,0    C177.984,282.392,168,258.28,168,232.64c0-25.648,9.984-49.752,28.12-67.88c18.136-18.136,42.24-28.12,67.88-28.12    s49.752,9.984,67.88,28.12c18.128,18.136,28.12,42.232,28.12,67.88C360,258.28,350.016,282.392,331.88,300.52z" fill="#e6e6e6"/><path d="M344,248v-16h-24.64c-0.816-5.648-2.464-11.024-4.84-16H336v-16h-32.888c-5.256-5.136-11.512-9.232-18.456-12    c2.072-3.544,3.344-7.608,3.344-12c0-13.232-10.768-24-24-24s-24,10.768-24,24c0,4.392,1.272,8.456,3.336,12    c-6.936,2.768-13.2,6.864-18.456,12H192v16h21.48c-2.376,4.976-4.024,10.352-4.84,16H184v16h24.64    c0.816,5.648,2.464,11.024,4.84,16H192v16h32.888c10.104,9.88,23.904,16,39.112,16s29.008-6.12,39.112-16H336v-16h-21.48    c2.376-4.976,4.024-10.352,4.84-16H344z M264,168c4.416,0,8,3.584,8,8s-3.584,8-8,8c-4.416,0-8-3.584-8-8S259.584,168,264,168z     M224,240c0-18.232,12.344-33.488,29.056-38.288l-17.944,65.808C228.264,260.344,224,250.68,224,240z M264,280    c-5.272,0-10.288-1.08-14.904-2.944L264,222.408l14.904,54.648C274.288,278.92,269.272,280,264,280z M292.888,267.52    l-17.944-65.808C291.656,206.512,304,221.768,304,240C304,250.68,299.736,260.344,292.888,267.52z" fill="#e6e6e6"/></g><g transform="matrix(0.06190433353185654 0 0 0.06190433353185654 107.14295196533203 112.14295959472656)" id="L1_180"><rect x="56px" y="32px" width="32px" height="16px" fill="#e6e6e6"/><rect x="104px" y="32px" width="32px" height="16px" fill="#e6e6e6"/><rect x="152px" y="32px" width="32px" height="16px" fill="#e6e6e6"/><rect x="200px" y="32px" width="32px" height="16px" fill="#e6e6e6"/><rect x="248px" y="32px" width="32px" height="16px" fill="#e6e6e6"/><rect x="56px" y="64px" width="32px" height="16px" fill="#e6e6e6"/><rect x="104px" y="64px" width="32px" height="16px" fill="#e6e6e6"/><rect x="152px" y="64px" width="32px" height="16px" fill="#e6e6e6"/><rect x="200px" y="64px" width="32px" height="16px" fill="#e6e6e6"/><rect x="248px" y="64px" width="32px" height="16px" fill="#e6e6e6"/><rect x="56px" y="176px" width="32px" height="16px" fill="#e6e6e6"/><rect x="104px" y="176px" width="32px" height="16px" fill="#e6e6e6"/><rect x="152px" y="176px" width="32px" height="16px" fill="#e6e6e6"/><rect x="200px" y="176px" width="32px" height="16px" fill="#e6e6e6"/><rect x="248px" y="176px" width="32px" height="16px" fill="#e6e6e6"/><rect x="56px" y="208px" width="32px" height="16px" fill="#e6e6e6"/><rect x="104px" y="208px" width="32px" height="16px" fill="#e6e6e6"/><rect x="152px" y="208px" width="32px" height="16px" fill="#e6e6e6"/><rect x="200px" y="208px" width="32px" height="16px" fill="#e6e6e6"/><rect x="248px" y="208px" width="32px" height="16px" fill="#e6e6e6"/><rect x="56px" y="320px" width="32px" height="16px" fill="#e6e6e6"/><rect x="104px" y="320px" width="32px" height="16px" fill="#e6e6e6"/><rect x="152px" y="320px" width="32px" height="16px" fill="#e6e6e6"/><rect x="200px" y="320px" width="32px" height="16px" fill="#e6e6e6"/><rect x="248px" y="320px" width="32px" height="16px" fill="#e6e6e6"/><rect x="56px" y="352px" width="32px" height="16px" fill="#e6e6e6"/><rect x="104px" y="352px" width="32px" height="16px" fill="#e6e6e6"/><rect x="152px" y="352px" width="32px" height="16px" fill="#e6e6e6"/><rect x="200px" y="352px" width="32px" height="16px" fill="#e6e6e6"/><rect x="248px" y="352px" width="32px" height="16px" fill="#e6e6e6"/><path d="M416,32.252H304c-4.416,0-8,3.584-8,8v48c0,4.416,3.584,8,8,8h112c4.416,0,8-3.584,8-8v-48    C424,35.836,420.416,32.252,416,32.252z M408,80.252h-96v-32h96V80.252z" fill="#e6e6e6"/><path d="M416,176.252H304c-4.416,0-8,3.584-8,8v48c0,4.416,3.584,8,8,8h112c4.416,0,8-3.584,8-8v-48    C424,179.836,420.416,176.252,416,176.252z M408,224.252h-96v-32h96V224.252z" fill="#e6e6e6"/><path d="M416,320.252H304c-4.416,0-8,3.584-8,8v48c0,4.416,3.584,8,8,8h112c4.416,0,8-3.584,8-8v-48    C424,323.836,420.416,320.252,416,320.252z M408,368.252h-96v-32h96V368.252z" fill="#e6e6e6"/><path d="M248,463.748v-47.496h200c4.416,0,8-3.584,8-8v-112c0-4.416-3.584-8-8-8h-8v-16h8c4.416,0,8-3.584,8-8v-112    c0-4.416-3.584-8-8-8h-8v-16h8c4.416,0,8-3.584,8-8v-112c0-4.416-3.584-8-8-8H32c-4.416,0-8,3.584-8,8v112c0,4.416,3.584,8,8,8h8    v16h-8c-4.416,0-8,3.584-8,8v112c0,4.416,3.584,8,8,8h8v16h-8c-4.416,0-8,3.584-8,8v112c0,4.416,3.584,8,8,8h200v47.496H0v16h480    v-16H248z M40,16.252h400v96H40V16.252z M424,128.252v16H56v-16H424z M40,160.252h400v96H40V160.252z M424,272.252v16H56v-16H424z     M40,400.252v-96h400v96H40z" fill="#e6e6e6"/></g><g transform="matrix(0.06861304491758347 -0.02058391273021698 0.02058391273021698 0.06861304491758347 170.34718322753906 67.31919860839844)" id="L1_181"><path d="M218.828,21.656h-128c-2.128,0-4.16,0.84-5.656,2.344l-80,80c-1.504,1.496-2.344,3.528-2.344,5.656v248    c0,4.424,3.576,8,8,8h208c4.424,0,8-3.576,8-8v-328C226.828,25.232,223.252,21.656,218.828,21.656z M82.828,48.968v52.688H30.14    L82.828,48.968z M210.828,349.656h-192v-232h72c4.424,0,8-3.576,8-8v-72h112V349.656z" fill="#e6e6e6"/><path d="M178.076,186.272c-1.32-2.816-4.144-4.616-7.248-4.616h-15.352l21.6-27c1.92-2.408,2.288-5.696,0.96-8.472    c-1.336-2.76-4.128-4.528-7.208-4.528h-72c-3.032,0-5.8,1.712-7.16,4.424l-32,64c-1.24,2.48-1.112,5.424,0.352,7.784    c1.464,2.36,4.032,3.792,6.808,3.792h30.024L83.02,283.92c-0.8,3.6,0.968,7.288,4.28,8.912c1.128,0.56,2.336,0.824,3.528,0.824    c2.312,0,4.584-1.008,6.152-2.872l80-96C178.964,192.392,179.396,189.072,178.076,186.272z M131.62,193.128    c1.336,2.76,4.128,4.528,7.208,4.528h14.92l-47.96,57.544l8.848-39.816c0.52-2.368-0.056-4.84-1.568-6.744    c-1.52-1.88-3.808-2.984-6.24-2.984H79.772l24-48h50.408l-21.6,27C130.66,187.064,130.292,190.352,131.62,193.128z" fill="#e6e6e6"/><path d="M362.828,29.656H278.14l18.344-18.344L285.172,0l-32,32l0.048,0.048c-0.728,0.736-1.376,1.552-1.784,2.544    c-1.24,2.992-0.552,6.432,1.736,8.72l32,32L296.484,64L278.14,45.656h76.688v16h16v-24    C370.828,33.232,367.252,29.656,362.828,29.656z" fill="#e6e6e6"/><path d="M296.484,432l-32-32l-11.312,11.312l18.344,18.344H130.828v-48h-16v56c0,4.424,3.576,8,8,8h148.688L253.172,464    l11.312,11.312l32-32l-0.048-0.048c0.728-0.728,1.376-1.552,1.784-2.544C299.46,437.728,298.772,434.288,296.484,432z" fill="#e6e6e6"/><path d="M445.652,110.824c-23.968-22.864-55.52-34.6-88.608-33.032C297.5,80.6,248.604,127.4,243.316,186.672    c-3.92,43.968,16.448,86.44,53.168,110.84c6.48,4.304,10.344,11.656,10.344,19.68v16.464c0,8.52,4.496,15.976,11.208,20.232    c-1.984,3.496-3.208,7.472-3.208,11.768c0,6.168,2.408,11.744,6.24,16c-3.84,4.256-6.24,9.832-6.24,16    c0,6.168,2.408,11.744,6.24,16c-3.84,4.256-6.24,9.832-6.24,16c0,13.232,10.768,24,24,24v8c0,13.232,10.768,24,24,24    s24-10.768,24-24v-8c13.232,0,24-10.768,24-24c0-6.168-2.408-11.744-6.24-16c3.84-4.256,6.24-9.832,6.24-16    c0-6.168-2.408-11.744-6.24-16c3.84-4.256,6.24-9.832,6.24-16c0-4.296-1.224-8.272-3.208-11.768    c6.712-4.256,11.208-11.712,11.208-20.232v-16.464c0-8.016,3.896-15.392,10.44-19.744c33.536-22.328,53.56-59.632,53.56-99.792    C482.828,164.528,469.628,133.696,445.652,110.824z M370.828,461.656c0,4.416-3.584,8-8,8c-4.416,0-8-3.584-8-8v-8h16V461.656z     M386.828,437.656h-8h-32h-8c-4.416,0-8-3.584-8-8c0-4.416,3.584-8,8-8h48c4.416,0,8,3.584,8,8    C394.828,434.072,391.244,437.656,386.828,437.656z M386.828,405.656h-48c-4.416,0-8-3.584-8-8c0-4.416,3.584-8,8-8h48    c4.416,0,8,3.584,8,8C394.828,402.072,391.244,405.656,386.828,405.656z M386.828,373.656h-48c-4.416,0-8-3.584-8-8    c0-4.416,3.584-8,8-8h8h32h8c4.416,0,8,3.584,8,8C394.828,370.072,391.244,373.656,386.828,373.656z M338.828,213.656h-14.896    c-8.128,0-15.328-5.432-16.768-12.632c-1.088-5.488,0.496-10.832,4.36-14.688c3.048-3.048,7.048-4.68,11.296-4.68    c1.112,0,2.232,0.12,3.376,0.336c7.2,1.44,12.632,8.64,12.632,16.768V213.656z M354.828,341.656v-112h16v112H354.828z     M420.396,284.136c-11,7.32-17.568,19.68-17.568,33.056v16.464c0,4.416-3.584,8-8,8h-8v-112h16c9.48,0,18.416-4.168,24.512-11.432    c6.096-7.264,8.64-16.848,6.984-26.304c-2.272-12.896-12.864-23.496-25.768-25.768c-9.488-1.64-19.048,0.888-26.304,6.984    c-7.256,6.104-11.424,15.04-11.424,24.52v16h-16V198.76c0-15.864-10.736-29.512-25.512-32.456    c-10.68-2.16-21.528,1.152-29.104,8.72c-7.584,7.576-10.848,18.464-8.736,29.112c2.936,14.792,16.584,25.52,32.456,25.52h14.896    v112h-8c-4.416,0-8-3.584-8-8v-16.464c0-13.392-6.536-25.728-17.488-33.008c-31.832-21.16-49.496-57.976-46.088-96.096    c4.576-51.344,46.944-91.888,98.536-94.32c1.704-0.072,3.4-0.112,5.088-0.112c26.88,0,52.192,10.104,71.736,28.744    c20.768,19.816,32.216,46.544,32.216,75.256C466.828,232.448,449.468,264.776,420.396,284.136z M386.828,213.656v-16    c0-4.744,2.088-9.208,5.72-12.256c3.688-3.104,8.384-4.352,13.248-3.48c6.288,1.104,11.664,6.48,12.768,12.768    c0.856,4.856-0.376,9.56-3.48,13.248c-3.048,3.632-7.512,5.72-12.256,5.72H386.828z" fill="#e6e6e6"/></g><g transform="matrix(0.08249587565660477 -0.008838844485580921 0.008838844485580921 0.08249587565660477 155.07955932617188 328.32220458984375)" id="L1_182"><path d="M472.001,112.002h-128V67.314l26.344,26.344l11.312-11.312l-40-40c-3.128-3.128-8.184-3.128-11.312,0l-40,40    l11.312,11.312l26.344-26.344v44.688h-80V27.314l26.344,26.344l11.312-11.312l-40-40c-3.128-3.128-8.184-3.128-11.312,0l-40,40    l11.312,11.312l26.344-26.344v84.688h-80V67.314l26.344,26.344l11.312-11.312l-40-40c-3.128-3.128-8.184-3.128-11.312,0l-40,40    l11.312,11.312l26.344-26.344v44.688h-128c-4.416,0-8,3.576-8,8v216c0,4.424,3.584,8,8,8h32v128c0,4.424,3.584,8,8,8h128    c3.16,0,6.024-1.856,7.312-4.752l32-72c0.456-1.024,0.688-2.128,0.688-3.248v-56h48v56c0,1.12,0.232,2.224,0.688,3.248l32,72    c1.288,2.896,4.152,4.752,7.312,4.752h128c4.416,0,8-3.576,8-8v-128h32c4.416,0,8-3.576,8-8v-216    C480.001,115.578,476.417,112.002,472.001,112.002z M200.001,398.306l-29.2,65.696h-114.8v-200c0-4.416,3.592-8,8-8s8,3.584,8,8    v64h16v-64v-32c0-4.416,3.592-8,8-8s8,3.584,8,8v96h16v-96v-32c0-4.416,3.592-8,8-8c4.408,0,8,3.584,8,8v32v96h16v-96    c0-4.416,3.592-8,8-8s8,3.584,8,8v112v24h16v-24c0-10.432,6.688-19.328,16-22.632V398.306z M424.001,464.002h-114.8l-29.2-65.696    V321.37c9.312,3.304,16,12.2,16,22.632v24h16v-24v-112c0-4.416,3.592-8,8-8c4.408,0,8,3.584,8,8v96h16v-96v-32    c0-4.416,3.592-8,8-8c4.408,0,8,3.584,8,8v32v96h16v-96c0-4.416,3.592-8,8-8c4.408,0,8,3.584,8,8v32v64h16v-64    c0-4.416,3.592-8,8-8c4.408,0,8,3.584,8,8V464.002z M464.001,328.002h-24v-64c0-13.232-10.768-24-24-24    c-2.816,0-5.488,0.576-8,1.472v-9.472c0-13.232-10.768-24-24-24c-2.816,0-5.488,0.576-8,1.472v-9.472c0-13.232-10.768-24-24-24    s-24,10.768-24,24v9.472c-2.512-0.896-5.184-1.472-8-1.472c-13.232,0-24,10.768-24,24v80.208c-6.704-5.08-14.96-8.208-24-8.208    c-4.416,0-8,3.576-8,8v16h-48v-16c0-4.424-3.584-8-8-8c-9.04,0-17.296,3.128-24,8.208v-80.208c0-13.232-10.768-24-24-24    c-2.816,0-5.488,0.576-8,1.472v-9.472c0-13.232-10.768-24-24-24s-24,10.768-24,24v9.472c-2.512-0.896-5.184-1.472-8-1.472    c-13.232,0-24,10.768-24,24v9.472c-2.512-0.896-5.184-1.472-8-1.472c-13.232,0-24,10.768-24,24v64h-24v-200h448V328.002z" fill="#e6e6e6"/><rect x="32px" y="144px" width="64px" height="16px" fill="#e6e6e6"/><rect x="120px" y="144px" width="64px" height="16px" fill="#e6e6e6"/><rect x="208px" y="144px" width="64px" height="16px" fill="#e6e6e6"/><rect x="296px" y="144px" width="64px" height="16px" fill="#e6e6e6"/><rect x="384px" y="144px" width="64px" height="16px" fill="#e6e6e6"/><rect x="72px" y="176px" width="16px" height="16px" fill="#e6e6e6"/><rect x="168px" y="176px" width="56px" height="16px" fill="#e6e6e6"/><rect x="256px" y="176px" width="56px" height="16px" fill="#e6e6e6"/><rect x="392px" y="176px" width="16px" height="16px" fill="#e6e6e6"/><rect x="424px" y="176px" width="24px" height="16px" fill="#e6e6e6"/><rect x="32px" y="176px" width="24px" height="16px" fill="#e6e6e6"/><rect x="32px" y="208px" width="24px" height="16px" fill="#e6e6e6"/><rect x="208px" y="208px" width="64px" height="16px" fill="#e6e6e6"/><rect x="424px" y="208px" width="24px" height="16px" fill="#e6e6e6"/><rect x="200px" y="240px" width="24px" height="16px" fill="#e6e6e6"/><rect x="256px" y="240px" width="24px" height="16px" fill="#e6e6e6"/><rect x="208px" y="272px" width="64px" height="16px" fill="#e6e6e6"/></g><g transform="matrix(0.0766032338142395 -0.011785113252699375 0.011785113252699375 0.0766032338142395 251.78680419921875 191.4436492919922)" id="L1_184"><path d="M440,0H40C17.944,0,0,17.944,0,40v296c0,22.056,17.944,40,40,40h131.688L146.8,432H64c-4.416,0-8,3.584-8,8    c0,22.056,17.944,40,40,40h288c22.056,0,40-17.944,40-40c0-4.416-3.584-8-8-8h-82.8l-24.888-56H440c22.056,0,40-17.944,40-40V40    C480,17.944,462.056,0,440,0z M406.632,448c-3.304,9.312-12.2,16-22.632,16H96c-10.432,0-19.328-6.688-22.632-16H152h176H406.632z     M315.688,432H164.312l24.888-56h101.6L315.688,432z M464,336c0,13.232-10.768,24-24,24H296H184H40c-13.232,0-24-10.768-24-24v-16    h448V336z M464,304H16V40c0-13.232,10.768-24,24-24h400c13.232,0,24,10.768,24,24V304z" fill="#e6e6e6"/><path d="M320,96h-12.176c-0.84-2.384-1.808-4.712-2.888-6.984l8.608-8.616c3.128-3.128,3.128-8.184,0-11.312l-22.632-22.632    c-3.128-3.128-8.184-3.128-11.312,0l-8.616,8.608c-2.272-1.072-4.6-2.04-6.984-2.888V40c0-4.416-3.584-8-8-8h-32    c-4.416,0-8,3.584-8,8v12.176c-2.384,0.84-4.712,1.808-6.984,2.888l-8.616-8.6c-3.128-3.128-8.184-3.128-11.312,0l-22.632,22.632    c-3.128,3.128-3.128,8.184,0,11.312l8.608,8.616c-1.08,2.272-2.048,4.6-2.888,6.984H160c-4.416,0-8,3.584-8,8V136    c0,4.416,3.584,8,8,8h12.176c0.84,2.384,1.808,4.712,2.888,6.984l-8.608,8.616c-3.128,3.128-3.128,8.184,0,11.312l22.632,22.632    c3.128,3.128,8.184,3.128,11.312,0l8.616-8.608c2.272,1.08,4.6,2.048,6.984,2.888V200c0,4.416,3.584,8,8,8h32c4.416,0,8-3.584,8-8    v-12.176c2.384-0.84,4.712-1.808,6.984-2.888l8.616,8.608c3.128,3.128,8.184,3.128,11.312,0l22.632-22.632    c3.128-3.128,3.128-8.184,0-11.312l-8.608-8.616c1.08-2.272,2.048-4.6,2.888-6.984H320c4.416,0,8-3.584,8-8v-32    C328,99.584,324.416,96,320,96z M312,128h-10.096c-3.648,0-6.832,2.472-7.744,6c-1.312,5.08-3.312,9.92-5.96,14.392    c-1.856,3.144-1.344,7.144,1.232,9.72l7.136,7.136l-11.32,11.32l-7.136-7.136c-2.576-2.576-6.576-3.08-9.72-1.232    c-4.48,2.648-9.32,4.648-14.392,5.96c-3.528,0.904-6,4.096-6,7.744V192h-16v-10.096c0-3.648-2.472-6.832-6-7.744    c-5.08-1.312-9.92-3.312-14.392-5.96c-3.152-1.856-7.144-1.344-9.72,1.232l-7.136,7.136l-11.32-11.32l7.136-7.136    c2.584-2.576,3.088-6.584,1.232-9.72c-2.648-4.48-4.648-9.32-5.96-14.392c-0.904-3.528-4.096-6-7.744-6H168v-16h10.096    c3.648,0,6.832-2.472,7.744-6c1.312-5.08,3.312-9.92,5.96-14.392c1.856-3.144,1.344-7.144-1.232-9.72l-7.136-7.136l11.32-11.32    l7.136,7.136c2.584,2.584,6.584,3.088,9.72,1.232c4.48-2.648,9.32-4.648,14.392-5.96c3.528-0.904,6-4.096,6-7.744V48h16v10.096    c0,3.648,2.472,6.832,6,7.744c5.08,1.312,9.92,3.312,14.392,5.96c3.144,1.848,7.144,1.336,9.72-1.232l7.136-7.136l11.32,11.32    l-7.136,7.136c-2.584,2.576-3.088,6.584-1.232,9.72c2.648,4.48,4.648,9.32,5.96,14.392c0.912,3.528,4.096,6,7.744,6H312V128z" fill="#e6e6e6"/><path d="M240,88c-17.648,0-32,14.352-32,32s14.352,32,32,32s32-14.352,32-32S257.648,88,240,88z M240,136c-8.824,0-16-7.176-16-16    c0-8.824,7.176-16,16-16c8.824,0,16,7.176,16,16S248.824,136,240,136z" fill="#e6e6e6"/><rect x="32px" y="112px" width="104px" height="16px" fill="#e6e6e6"/><path d="M120,48c-2.12,0-4.16,0.84-5.656,2.344L84.688,80H32v16h56c2.12,0,4.16-0.84,5.656-2.344L123.312,64H152V48H120z" fill="#e6e6e6"/><path d="M123.312,176l-29.656-29.656C92.16,144.84,90.12,144,88,144H32v16h52.688l29.656,29.656C115.84,191.16,117.88,192,120,192    h32v-16H123.312z" fill="#e6e6e6"/><rect x="344px" y="112px" width="104px" height="16px" fill="#e6e6e6"/><path d="M395.312,80l-29.656-29.656C364.16,48.84,362.12,48,360,48h-32v16h28.688l29.656,29.656C387.84,95.16,389.88,96,392,96h56    V80H395.312z" fill="#e6e6e6"/><path d="M392,144c-2.12,0-4.16,0.84-5.656,2.344L356.688,176H328v16h32c2.12,0,4.16-0.84,5.656-2.344L395.312,160H448v-16H392z" fill="#e6e6e6"/><path d="M169.656,237.656l-11.312-11.312l-24,24c-3.128,3.128-3.128,8.184,0,11.312l24,24l11.312-11.312L151.312,256    L169.656,237.656z" fill="#e6e6e6"/><path d="M345.656,250.344l-24-24l-11.312,11.312L328.688,256l-18.344,18.344l11.312,11.312l24-24    C348.784,258.528,348.784,253.472,345.656,250.344z" fill="#e6e6e6"/><rect x="240px" y="264px" width="16px" height="16px" fill="#e6e6e6"/><rect x="272px" y="264px" width="16px" height="16px" fill="#e6e6e6"/><rect x="185px" y="247px" width="53px" height="16px" transform="matrix(0.43799999356269836 -0.8989999890327454 0.8989999890327454 0.43799999356269836 -110.74330139160156 334.7148132324219)" fill="#e6e6e6"/></g><g transform="matrix(0.07200606912374496 0.018668239936232567 -0.018668239936232567 0.07200606912374496 256.19891357421875 35.23816680908203)" id="L1_187"><rect x="280px" y="264px" width="16px" height="16px" fill="#e6e6e6"/><rect x="272px" y="176px" width="40px" height="16px" fill="#e6e6e6"/><rect x="336px" y="176px" width="40px" height="16px" fill="#e6e6e6"/><rect x="400px" y="176px" width="40px" height="16px" fill="#e6e6e6"/><path d="M437.656,90.344l-48-48l-11.312,11.312L420.688,96l-42.344,42.344l11.312,11.312l48-48    C440.784,98.528,440.784,93.472,437.656,90.344z" fill="#e6e6e6"/><path d="M293.656,53.656l-11.312-11.312l-48,48c-3.128,3.128-3.128,8.184,0,11.312l48,48l11.312-11.312L251.312,96L293.656,53.656    z" fill="#e6e6e6"/><rect x="285px" y="91px" width="100px" height="16px" transform="matrix(0.47909998893737793 -0.8777999877929688 0.8777999877929688 0.47909998893737793 87.2886962890625 346.99560546875)" fill="#e6e6e6"/><path d="M480,272V48c0-22.056-17.944-40-40-40H128C83.888,8,48,43.888,48,88c0,26.408,12.912,49.792,32.696,64.368    C35.584,156.104,0,193.944,0,240v7.68V464v0.768h0.152C0.56,468.808,3.856,472,8,472h184c4.416,0,8-3.584,8-8V351.16    c10.168,10.384,24.344,16.84,40,16.84h100h124v32h-32v16h16v56h16v-56h8c4.416,0,8-3.584,8-8v-48c0-4.416-3.584-8-8-8H369.904    c3.84-5.728,6.096-12.6,6.096-20c0-7.4-2.256-14.272-6.096-20H440C462.056,312,480,294.056,480,272z M440,24    c13.232,0,24,10.768,24,24v184H256v8c0-46.056-35.584-83.896-80.696-87.632C195.088,137.792,208,114.408,208,88    c0-26.184-12.704-49.4-32.2-64H440z M64,88c0-35.288,28.712-64,64-64s64,28.712,64,64c0,14.872-5.144,28.544-13.688,39.424    C163.384,124.728,152,111.696,152,96h-16c0,19.744,11.984,36.72,29.048,44.088C154.584,147.56,141.816,152,128,152    C92.712,152,64,123.288,64,88z M152,456H16V256l112.344-0.008c7.296-0.304,14.024,2.032,18.608,6.416    c2.304,2.208,5.048,5.912,5.048,11.024V456z M340,352H240c-22.056,0-40-17.944-40-40v-72h-16v216h-16V273.432    c0-8.392-3.544-16.416-9.984-22.576c-7.72-7.4-18.832-11.328-30.016-10.856H16c0-39.696,32.304-72,72-72h80    c39.696,0,72,32.304,72,72v64c0,4.416,3.584,8,8,8h92c11.024,0,20,8.976,20,20S351.024,352,340,352z M340,296h-84v-48h208v24    c0,13.232-10.768,24-24,24H340z" fill="#e6e6e6"/></g><g transform="matrix(0.07677469402551651 0 0 0.07677469402551651 114.555419921875 260.55194091796875)" id="L1_188"><path d="M428.864,339.056c1.96-7.576,2.952-15.296,2.952-23.088c0-27.016-11.776-51.272-30.384-68.12    c16.664-67.816-3.16-139.928-52.528-189.288C311.232,20.888,261.128,0.088,207.832,0c-0.008,0-0.008,0-0.016,0h-8    c0,0-0.008,0-0.016,0C146.496,0.096,96.4,20.888,58.728,58.56C20.952,96.344,0.144,146.568,0.152,199.992    c0,53.416,20.808,103.632,58.576,141.416c16.944,16.952,36.552,30.296,58.12,40.176c-3.24,8.2-5.032,17.104-5.032,26.384    c0,36.28,27.088,67.008,63.032,71.472c2.968,0.36,5.904,0.528,8.968,0.528h224c3.064,0,6-0.168,8.984-0.536    c35.928-4.456,63.016-35.184,63.016-71.464C479.816,375.848,458.864,348.16,428.864,339.056z M355.56,90.936    c20.056,27.32,32.056,59.584,34.984,93.032h-95.96c-1.28-22.76-5.288-45.168-11.968-66.776    C307.648,111.304,332.104,102.504,355.56,90.936z M391.24,199.976c0.008,12.448-1.168,24.968-3.728,37.368    c-0.408-0.248-0.864-0.416-1.28-0.664c-3.072-1.816-6.248-3.496-9.544-4.944c-0.128-0.056-0.248-0.128-0.376-0.184    c-3.576-1.552-7.28-2.848-11.08-3.936c-0.624-0.176-1.248-0.32-1.872-0.48c-3.072-0.816-6.208-1.472-9.4-1.968    c-0.888-0.144-1.776-0.296-2.672-0.408c-3.768-0.472-7.576-0.792-11.472-0.792c-3.768,0-7.448,0.304-11.096,0.752    c-0.904,0.112-1.8,0.224-2.696,0.36c-3.592,0.544-7.128,1.224-10.576,2.176c-0.36,0.096-0.712,0.24-1.072,0.344    c-3.16,0.912-6.232,2.016-9.24,3.248c-0.888,0.36-1.768,0.72-2.648,1.112c-3.184,1.424-6.288,2.984-9.272,4.744    c-0.192,0.112-0.392,0.184-0.584,0.296c1.648-12.36,2.376-24.72,2.384-37.024H391.24z M337.592,69.872    c2.68,2.68,5.264,5.44,7.752,8.264c-21.88,10.504-44.664,18.448-67.952,23.808c-11.48-30.712-28.336-59.512-50.288-84.912    C268.848,21.424,307.52,39.8,337.592,69.872z M141.192,280.576c-8.32-26.232-12.36-53.448-12.304-80.608h150.128    c-0.016,17.272-1.68,34.672-5.144,52c-7.24,7.464-13.224,16.136-17.624,25.696C219.656,272.144,180.088,273.288,141.192,280.576z     M250.8,293.016c-0.44,1.712-0.912,3.416-1.256,5.168c-3.056-2.416-6.592-4.728-10.472-6.552    C243.008,292.024,246.92,292.48,250.8,293.016z M184.632,335.976c-3.408-0.104-6.552,0.136-9.8,0.528    c-2.52,0.312-4.984,0.784-7.416,1.352c-8.288-13.512-15.224-27.576-20.816-42.024c21.616-3.904,43.408-5.832,64.712-5.664    c-15.912,5.28-27.496,20.136-27.496,37.8C183.816,330.664,184.096,333.36,184.632,335.976z M129.368,183.968    c1.328-21.496,5.272-42.816,11.728-63.432c20.744,3.848,41.76,5.864,62.784,5.864c21.096,0,42.184-1.976,62.984-5.848    c6.464,20.504,10.4,41.784,11.696,63.416H129.368z M203.24,16h1.104c25.304,26.016,44.536,56.408,57.16,89.232    c-38.04,6.784-77.032,6.792-115.104,0.016C158.856,72.576,177.888,42.088,203.24,16z M70.04,69.872    C100.112,39.8,138.8,21.416,180.552,17.024c-21.992,25.52-38.536,54.472-49.872,85.104c-23.352-5.352-46.208-13.4-68.176-23.944    C64.984,75.392,67.376,72.536,70.04,69.872z M52.12,91.008c23.584,11.648,48.2,20.456,73.36,26.344    c-6.648,21.68-10.616,44.048-11.936,66.616H16.928C19.832,150.072,32.032,118.176,52.12,91.008z M52.184,309.048    c-23.264-31.44-36.032-69.224-36.032-109.056c0-0.008,0-0.016,0-0.024h96.808c-0.056,28.24,4.048,56.544,12.528,83.872    C100.168,289.688,75.408,298.176,52.184,309.048z M124.216,367.624c-20.168-9.12-38.368-21.72-54.176-37.528    c-2.648-2.648-5.024-5.48-7.496-8.264c21.704-9.848,44.76-17.488,68.256-22.808c5.712,15.208,12.672,30.08,21.176,44.336    c-0.184,0.088-0.352,0.216-0.536,0.312c-2.568,1.296-5.072,2.704-7.448,4.288c-0.136,0.088-0.256,0.192-0.392,0.288    c-2.168,1.464-4.232,3.072-6.224,4.76c-0.52,0.44-1.032,0.88-1.536,1.336c-4.24,3.808-8.016,8.104-11.256,12.8    C124.472,367.312,124.336,367.456,124.216,367.624z M414.848,463.544c-2.32,0.288-4.64,0.424-7.032,0.424h-224    c-2.392,0-4.712-0.136-7.016-0.416c-27.928-3.464-48.984-27.368-48.984-55.584c0-9.648,2.512-18.76,6.864-26.752    c0.752-1.376,1.56-2.72,2.408-4.024c0.144-0.216,0.28-0.424,0.424-0.632c0.816-1.208,1.68-2.376,2.576-3.504    c0.224-0.28,0.448-0.56,0.672-0.84c0.848-1.032,1.744-2.016,2.664-2.976c0.304-0.32,0.608-0.64,0.92-0.952    c0.904-0.904,1.84-1.76,2.808-2.6c0.344-0.304,0.688-0.616,1.04-0.904c1.016-0.84,2.064-1.632,3.144-2.4    c0.32-0.232,0.632-0.472,0.952-0.688c1.232-0.84,2.512-1.632,3.816-2.376c0.176-0.104,0.344-0.208,0.52-0.312    c3.048-1.696,6.272-3.112,9.64-4.224c0.024-0.008,0.04-0.032,0.064-0.04c3.352-1.096,6.84-1.904,10.456-2.352    c2.32-0.288,4.64-0.424,7.032-0.424c3.824,0,7.688,0.4,11.496,1.192c3.032,0.608,6.12-0.536,7.984-2.976    c1.864-2.448,2.168-5.744,0.776-8.488c-0.064-0.128-0.936-1.608-1-1.728c-2.16-3.744-3.256-7.784-3.256-12    c0-13.232,10.768-24,24-24c11.032,0,22.152,12.04,25.496,16.656c2.016,2.832,5.648,4.016,8.952,2.96    c3.304-1.064,5.552-4.136,5.552-7.616c0-22.112,9.552-41.984,24.672-55.88c1.184-1.088,2.368-2.176,3.608-3.184    c0.808-0.656,1.664-1.248,2.496-1.872c1.096-0.816,2.184-1.648,3.32-2.408c1.056-0.696,2.152-1.328,3.24-1.976    c0.984-0.584,1.952-1.2,2.96-1.736c1.248-0.672,2.544-1.256,3.84-1.856c0.92-0.424,1.816-0.888,2.752-1.272    c1.368-0.568,2.784-1.048,4.192-1.536c0.912-0.32,1.808-0.68,2.728-0.96c1.464-0.448,2.968-0.792,4.472-1.152    c0.912-0.216,1.808-0.488,2.728-0.672c1.624-0.328,3.288-0.536,4.944-0.76c0.824-0.112,1.64-0.28,2.472-0.36    c2.488-0.24,5.016-0.376,7.576-0.376c2.464,0,4.888,0.136,7.296,0.368c0.608,0.056,1.208,0.16,1.816,0.232    c1.84,0.224,3.672,0.488,5.472,0.84c0.584,0.112,1.16,0.248,1.744,0.376c1.84,0.408,3.664,0.872,5.456,1.408    c0.48,0.144,0.96,0.288,1.44,0.44c1.904,0.616,3.776,1.304,5.616,2.064c0.352,0.144,0.704,0.272,1.056,0.424    c2,0.856,3.952,1.808,5.864,2.832c0.184,0.096,0.376,0.184,0.56,0.28c23.616,12.888,39.68,37.968,39.68,66.736    c0,8.864-1.56,17.672-4.64,26.16c-0.808,2.224-0.592,4.696,0.6,6.744c1.184,2.048,3.224,3.472,5.56,3.864    c26.936,4.64,46.48,27.864,46.48,55.232C463.816,436.184,442.76,460.088,414.848,463.544z" fill="#e6e6e6"/><path d="M223.816,375.968v6.88l-10.04,35.144l-14.8-29.6c-2.712-5.424-11.6-5.424-14.312,0l-14.8,29.6l-10.048-35.144v-6.88h-16v8    c0,0.744,0.104,1.488,0.312,2.192l16,56c0.904,3.168,3.664,5.472,6.952,5.776c3.304,0.296,6.424-1.44,7.896-4.392l16.84-33.688    l16.84,33.688c1.368,2.728,4.152,4.424,7.16,4.424c0.248,0,0.496-0.008,0.744-0.032c3.28-0.304,6.04-2.6,6.952-5.776l16-56    c0.2-0.704,0.304-1.448,0.304-2.192v-8H223.816z" fill="#e6e6e6"/><path d="M327.816,375.968v6.88l-10.04,35.144l-14.8-29.6c-2.712-5.424-11.6-5.424-14.312,0l-14.8,29.6l-10.048-35.144v-6.88h-16v8    c0,0.744,0.104,1.488,0.312,2.192l16,56c0.904,3.168,3.664,5.472,6.952,5.776c3.304,0.296,6.424-1.44,7.896-4.392l16.84-33.688    l16.84,33.688c1.368,2.728,4.152,4.424,7.16,4.424c0.248,0,0.496-0.008,0.744-0.032c3.28-0.304,6.04-2.6,6.952-5.776l16-56    c0.2-0.704,0.304-1.448,0.304-2.192v-8H327.816z" fill="#e6e6e6"/><path d="M431.816,375.968v6.88l-10.04,35.144l-14.8-29.6c-2.712-5.424-11.6-5.424-14.312,0l-14.8,29.6l-10.048-35.144v-6.88h-16v8    c0,0.744,0.104,1.488,0.312,2.192l16,56c0.904,3.168,3.664,5.472,6.952,5.776c3.304,0.296,6.424-1.44,7.896-4.392l16.84-33.688    l16.84,33.688c1.368,2.728,4.152,4.424,7.16,4.424c0.248,0,0.496-0.008,0.744-0.032c3.28-0.304,6.04-2.6,6.952-5.776l16-56    c0.2-0.704,0.304-1.448,0.304-2.192v-8H431.816z" fill="#e6e6e6"/></g><g transform="matrix(0.059499844908714294 -0.011442277580499649 0.011442277580499649 0.059499844908714294 16.97389030456543 242.4661865234375)" id="L1_189"><path d="M144,336H96c-4.424,0-8,3.576-8,8v64c0,3.448,2.2,6.496,5.472,7.584c3.28,1.12,6.864-0.032,8.928-2.792l17.6-23.464    l17.6,23.464c1.536,2.056,3.928,3.2,6.4,3.2c0.84,0,1.696-0.136,2.528-0.416C149.8,414.496,152,411.448,152,408v-64    C152,339.576,148.424,336,144,336z M136,384l-9.6-12.8c-1.512-2.016-3.888-3.2-6.4-3.2c-2.512,0-4.888,1.184-6.4,3.2L104,384v-32    h32V384z" fill="#e6e6e6"/><path d="M457.944,319.8C470.256,318.792,480,308.568,480,296V8c0-2.128-0.84-4.16-2.344-5.656C476.152,0.848,474.128,0,472,0    L88,0.16c-0.12,0-0.232,0-0.36,0c-25.52,0-47.392,8.344-63.24,24.152C8.44,40.216,0,62.24,0,88v287.84    C0,433.272,46.728,480,104.16,480H456c13.232,0,24-10.768,24-24c0-12.6-9.792-22.856-22.16-23.816    c-20.056-6.728-29.064-32.928-29.064-56.12C428.776,352.808,437.816,326.52,457.944,319.8z M16,88    c0-21.416,6.816-39.512,19.696-52.36c12.792-12.752,30.752-19.488,51.952-19.488c0.112,0,0.216,0,0.328,0l0.024-8v8L464,16    v257.472c-2.512-0.896-5.184-1.472-8-1.472H104V56H88v217.336c-30.312,4.672-56.288,22.432-72,47.376V88z M455.92,448H456    c4.416,0,8,3.584,8,8c0,4.416-3.584,8-8,8H104.16C55.544,464,16,424.456,16,375.84C16,327.408,55.408,288,103.84,288H456    c4.416,0,8,3.584,8,8c0,4.416-3.584,8-8,8H103.84C64.224,304,32,336.224,32,375.84C32,415.632,64.368,448,104.16,448H455.92z     M412.784,376.072c0,22.872,6.576,42.64,17.832,55.928H104.16C73.192,432,48,406.808,48,375.84C48,345.056,73.056,320,103.84,320    h326.832C419.384,333.32,412.784,353.136,412.784,376.072z" fill="#e6e6e6"/><rect x="232px" y="208px" width="16px" height="16px" fill="#e6e6e6"/><rect x="264px" y="208px" width="16px" height="16px" fill="#e6e6e6"/><rect x="296px" y="208px" width="16px" height="16px" fill="#e6e6e6"/><path d="M229.656,109.656l-11.312-11.312l-24,24c-3.128,3.128-3.128,8.184,0,11.312l24,24l11.312-11.312L211.312,128    L229.656,109.656z" fill="#e6e6e6"/><rect x="240px" y="107px" width="78px" height="16px" transform="matrix(0.40610000491142273 -0.9138000011444092 0.9138000011444092 0.40610000491142273 60.32160186767578 324.7296142578125)" fill="#e6e6e6"/><path d="M349.656,122.344l-24-24l-11.312,11.312L332.688,128l-18.344,18.344l11.312,11.312l24-24    C352.784,130.528,352.784,125.472,349.656,122.344z" fill="#e6e6e6"/></g><g transform="matrix(0.061941951513290405 0 0 0.061941951513290405 191.13392639160156 128.13392639160156)" id="L1_191"><path d="M472,0h-24H168h-56H96H80H64H48H32H8C3.576,0,0,3.576,0,8v464c0,4.424,3.576,8,8,8h464c4.424,0,8-3.576,8-8V8    C480,3.576,476.424,0,472,0z M464,464H16V80h448V464z M464,64H16V16h16h16h16h16h16h16h56h280h16V64z" fill="#e6e6e6"/><path d="M136,136c-57.344,0-104,46.656-104,104s46.656,104,104,104s104-46.656,104-104S193.344,136,136,136z M136,328    c-21.12,0-40.52-7.488-55.696-19.936c1.52-21.84,15.32-40.672,35.824-48.424c6.056,2.776,12.776,4.36,19.872,4.36    s13.816-1.584,19.88-4.36c20.504,7.752,34.304,26.592,35.824,48.424C176.52,320.512,157.12,328,136,328z M104,216    c0-17.648,14.352-32,32-32s32,14.352,32,32c0,12.032-6.744,22.4-16.584,27.864c-0.04,0.024-0.088,0.016-0.128,0.04    c-2.24,1.232-4.536,2.144-6.848,2.824c-0.288,0.08-0.56,0.192-0.856,0.264c-0.816,0.216-1.64,0.344-2.456,0.488    c-1.536,0.248-3.08,0.448-4.68,0.472c-0.296,0.008-0.592,0.008-0.88,0c-1.6-0.024-3.144-0.224-4.68-0.472    c-0.824-0.144-1.64-0.272-2.456-0.488c-0.296-0.072-0.568-0.184-0.856-0.264c-2.312-0.672-4.608-1.592-6.848-2.824    c-0.04-0.024-0.088-0.016-0.128-0.04C110.744,238.4,104,228.032,104,216z M205.616,293.624    c-4.96-19.008-17.504-35.128-34.832-44.64C178.952,240.376,184,228.776,184,216c0-26.472-21.528-48-48-48s-48,21.528-48,48    c0,12.776,5.048,24.376,13.216,32.984c-17.328,9.512-29.872,25.632-34.832,44.64C54.904,278.76,48,260.192,48,240    c0-48.52,39.48-88,88-88s88,39.48,88,88C224,260.192,217.096,278.76,205.616,293.624z" fill="#e6e6e6"/><path d="M432,152H272c-4.424,0-8,3.576-8,8v64c0,4.424,3.576,8,8,8h160c4.424,0,8-3.576,8-8v-64C440,155.576,436.424,152,432,152z     M424,216H280v-48h144V216z" fill="#e6e6e6"/><rect x="296px" y="184px" width="16px" height="16px" fill="#e6e6e6"/><rect x="328px" y="184px" width="16px" height="16px" fill="#e6e6e6"/><rect x="360px" y="184px" width="16px" height="16px" fill="#e6e6e6"/><rect x="392px" y="184px" width="16px" height="16px" fill="#e6e6e6"/><path d="M432,248H272c-4.424,0-8,3.576-8,8v64c0,4.424,3.576,8,8,8h160c4.424,0,8-3.576,8-8v-64C440,251.576,436.424,248,432,248z     M424,312H280v-48h144V312z" fill="#e6e6e6"/><rect x="296px" y="280px" width="16px" height="16px" fill="#e6e6e6"/><rect x="328px" y="280px" width="16px" height="16px" fill="#e6e6e6"/><rect x="360px" y="280px" width="16px" height="16px" fill="#e6e6e6"/><rect x="392px" y="280px" width="16px" height="16px" fill="#e6e6e6"/><rect x="32px" y="32px" width="16px" height="16px" fill="#e6e6e6"/><rect x="64px" y="32px" width="16px" height="16px" fill="#e6e6e6"/><rect x="96px" y="32px" width="16px" height="16px" fill="#e6e6e6"/><rect x="208px" y="32px" width="240px" height="16px" fill="#e6e6e6"/></g><g transform="matrix(0.06488505005836487 0 0 0.06488505005836487 198.42758178710938 240.42758178710938)" id="L1_192"><path d="M69.656,141.656l-11.312-11.312l-24,24c-3.128,3.128-3.128,8.184,0,11.312l24,24l11.312-11.312L51.312,160L69.656,141.656    z" fill="#e6e6e6"/><path d="M157.656,154.344l-24-24l-11.312,11.312L140.688,160l-18.344,18.344l11.312,11.312l24-24    C160.784,162.528,160.784,157.472,157.656,154.344z" fill="#e6e6e6"/><path d="M349.656,229.656l-11.312-11.312l-24,24c-3.128,3.128-3.128,8.184,0,11.312l24,24l11.312-11.312L331.312,248    L349.656,229.656z" fill="#e6e6e6"/><path d="M445.656,242.344l-24-24l-11.312,11.312L428.688,248l-18.344,18.344l11.312,11.312l24-24    C448.784,250.528,448.784,245.472,445.656,242.344z" fill="#e6e6e6"/><rect x="176px" y="176px" width="272px" height="16px" fill="#e6e6e6"/><rect x="32px" y="256px" width="264px" height="16px" fill="#e6e6e6"/><rect x="353px" y="239px" width="53px" height="15px" transform="matrix(0.4381999969482422 -0.8988999724388123 0.8988999724388123 0.4381999969482422 -9.232500076293945 481.1671142578125)" fill="#e6e6e6"/><path d="M69.656,301.656l-11.312-11.312l-24,24c-3.128,3.128-3.128,8.184,0,11.312l24,24l11.312-11.312L51.312,320L69.656,301.656    z" fill="#e6e6e6"/><path d="M157.656,314.344l-24-24l-11.312,11.312L140.688,320l-18.344,18.344l11.312,11.312l24-24    C160.784,322.528,160.784,317.472,157.656,314.344z" fill="#e6e6e6"/><path d="M349.656,389.656l-11.312-11.312l-24,24c-3.128,3.128-3.128,8.184,0,11.312l24,24l11.312-11.312L331.312,408    L349.656,389.656z" fill="#e6e6e6"/><path d="M445.656,402.344l-24-24l-11.312,11.312L428.688,408l-18.344,18.344l11.312,11.312l24-24    C448.784,410.528,448.784,405.472,445.656,402.344z" fill="#e6e6e6"/><rect x="176px" y="336px" width="272px" height="16px" fill="#e6e6e6"/><rect x="32px" y="416px" width="264px" height="16px" fill="#e6e6e6"/><rect x="353px" y="400px" width="53px" height="15px" transform="matrix(0.4381999969482422 -0.8988999724388123 0.8988999724388123 0.4381999969482422 -153.08680725097656 571.0673828125)" fill="#e6e6e6"/><path d="M472,0H112c-2.216,0-4.216,0.896-5.664,2.352L2.352,106.336C0.896,107.784,0,109.784,0,112v360c0,4.416,3.576,8,8,8h464    c4.424,0,8-3.584,8-8V8C480,3.584,476.424,0,472,0z M104,27.312V104H27.312L104,27.312z M464,464H16V120h96c4.424,0,8-3.584,8-8    V16h344V464z" fill="#e6e6e6"/></g><g transform="matrix(0.005892554763704538 0.06187184527516365 -0.06187184527516365 0.005892554763704538 352.4350280761719 -6.263458728790283)" id="L1_193"><path d="M200,104h-19.728c-1.408-4.464-3.2-8.792-5.384-12.952l13.96-13.968c3.128-3.128,3.128-8.184,0-11.312l-22.624-22.624    c-3.128-3.128-8.184-3.128-11.312,0l-13.96,13.96c-4.152-2.176-8.488-3.968-12.952-5.376V32c0-4.416-3.576-8-8-8H88    c-4.424,0-8,3.584-8,8v19.728c-4.464,1.408-8.8,3.2-12.952,5.376l-13.96-13.952c-3.128-3.128-8.184-3.128-11.312,0L19.152,65.776    c-3.128,3.128-3.128,8.184,0,11.312l13.96,13.968c-2.184,4.152-3.976,8.48-5.384,12.944H8c-4.424,0-8,3.584-8,8v32    c0,4.416,3.576,8,8,8h19.728c1.408,4.464,3.2,8.792,5.384,12.952l-13.96,13.968c-3.128,3.128-3.128,8.184,0,11.312l22.624,22.624    c3.128,3.128,8.184,3.128,11.312,0l13.96-13.96c4.16,2.176,8.496,3.976,12.952,5.376V224c0,4.416,3.576,8,8,8h32    c4.424,0,8-3.584,8-8v-19.728c4.464-1.408,8.8-3.2,12.952-5.376l13.96,13.96c3.128,3.128,8.184,3.128,11.312,0l22.624-22.624    c3.128-3.128,3.128-8.184,0-11.312l-13.96-13.968c2.176-4.16,3.976-8.488,5.384-12.952H200c4.424,0,8-3.584,8-8v-32    C208,107.584,204.424,104,200,104z M192,136h-17.84c-3.736,0-6.968,2.584-7.8,6.224c-1.6,7.008-4.368,13.672-8.216,19.792    c-1.992,3.16-1.528,7.28,1.112,9.92l12.632,12.64l-11.312,11.312l-12.632-12.632c-2.648-2.64-6.768-3.104-9.92-1.112    c-6.128,3.856-12.784,6.624-19.792,8.216c-3.648,0.824-6.232,4.064-6.232,7.8V216H96v-17.84c0-3.736-2.584-6.976-6.224-7.8    c-7.008-1.592-13.664-4.36-19.792-8.216c-3.16-1.992-7.272-1.528-9.92,1.112l-12.632,12.632L36.12,184.576l12.632-12.64    c2.64-2.64,3.104-6.76,1.112-9.92c-3.848-6.12-6.616-12.776-8.216-19.792c-0.832-3.64-4.072-6.224-7.808-6.224H16v-16h17.84    c3.736,0,6.968-2.584,7.8-6.224c1.6-7.008,4.368-13.672,8.216-19.792c1.992-3.16,1.528-7.28-1.112-9.92l-12.632-12.64    l11.312-11.312l12.632,12.632c2.648,2.648,6.768,3.104,9.92,1.112C76.104,70,82.76,67.232,89.768,65.64    C93.416,64.816,96,61.576,96,57.84V40h16v17.84c0,3.736,2.584,6.976,6.224,7.8c7.008,1.592,13.664,4.36,19.792,8.216    c3.16,1.992,7.272,1.528,9.92-1.112l12.632-12.632l11.312,11.312l-12.632,12.64c-2.64,2.64-3.104,6.76-1.112,9.92    c3.848,6.12,6.616,12.776,8.216,19.792c0.832,3.64,4.072,6.224,7.808,6.224H192V136z" fill="#e6e6e6"/><path d="M104,88c-22.056,0-40,17.944-40,40c0,22.056,17.944,40,40,40c22.056,0,40-17.944,40-40C144,105.944,126.056,88,104,88z     M104,152c-13.232,0-24-10.768-24-24s10.768-24,24-24s24,10.768,24,24S117.232,152,104,152z" fill="#e6e6e6"/><path d="M320,240c-44.112,0-80,35.888-80,80s35.888,80,80,80s80-35.888,80-80S364.112,240,320,240z M320,384    c-35.288,0-64-28.712-64-64c0-35.288,28.712-64,64-64c35.288,0,64,28.712,64,64C384,355.288,355.288,384,320,384z" fill="#e6e6e6"/><path d="M472,288h-28.048c-2.28-8.816-5.536-17.4-9.736-25.656L455.76,240.8c1.504-1.504,2.344-3.536,2.344-5.656    s-0.84-4.16-2.344-5.656l-39.6-39.6c-3.128-3.128-8.184-3.128-11.312,0l-19.864,19.864c-7.84-4.616-16.2-8.384-24.984-11.256V168    c0-4.416-3.576-8-8-8h-56c-4.424,0-8,3.584-8,8v28.048c-8.728,2.256-17.224,5.464-25.392,9.576l-25.24-21.688    c-1.608-1.384-3.784-2.048-5.816-1.912c-2.12,0.16-4.088,1.152-5.472,2.76l-36.496,42.48c-2.872,3.352-2.496,8.4,0.856,11.28    l19.248,16.544c-4.584,7.808-8.336,16.144-11.2,24.912H168c-4.424,0-8,3.584-8,8v56c0,4.416,3.576,8,8,8h28.048    c2.28,8.816,5.536,17.4,9.736,25.656L184.24,399.2c-1.504,1.504-2.344,3.536-2.344,5.656s0.84,4.16,2.344,5.656l39.6,39.6    c3.128,3.128,8.184,3.128,11.312,0l19.864-19.864c7.832,4.608,16.2,8.376,24.984,11.256V472c0,4.416,3.576,8,8,8h56    c4.424,0,8-3.584,8-8v-28.048c8.808-2.28,17.392-5.536,25.648-9.736l21.544,21.544c3.128,3.128,8.184,3.128,11.312,0l39.6-39.6    c3.128-3.128,3.128-8.184,0-11.312l-19.864-19.872c4.608-7.832,8.376-16.192,11.248-24.984H472c4.424,0,8-3.584,8-8v-56    C480,291.584,476.424,288,472,288z M464,344h-28.448c-3.592,0-6.752,2.4-7.712,5.864c-3.176,11.488-8.032,22.2-14.432,31.856    c-2.104,3.168-1.672,7.384,1.016,10.072l18.712,18.712l-28.288,28.288l-20.096-20.096c-2.536-2.544-6.464-3.088-9.608-1.304    c-10.376,5.888-21.392,10.048-32.744,12.344c-3.72,0.768-6.4,4.048-6.4,7.856V464h-40v-28.448c0-3.6-2.4-6.752-5.864-7.712    c-11.48-3.176-22.192-8.024-31.848-14.424c-3.168-2.096-7.392-1.688-10.08,1.008l-18.712,18.712l-28.288-28.288l20.096-20.088    c2.544-2.544,3.08-6.48,1.296-9.608c-5.88-10.368-10.04-21.384-12.344-32.752c-0.76-3.72-4.048-6.4-7.848-6.4H176v-40h28.448    c3.592,0,6.752-2.4,7.712-5.864c3.208-11.632,8.136-22.464,14.632-32.184c2.24-3.36,1.624-7.872-1.448-10.504l-18.4-15.816    l26.064-30.336l23.32,20.032c2.544,2.192,6.192,2.56,9.12,0.912c10.168-5.68,20.976-9.712,32.152-11.984    c3.72-0.76,6.4-4.04,6.4-7.848V176h40v28.448c0,3.6,2.4,6.752,5.864,7.712c11.472,3.168,22.184,8.024,31.848,14.424    c3.168,2.096,7.384,1.68,10.08-1.008l18.712-18.712l28.288,28.288l-20.096,20.088c-2.544,2.544-3.08,6.48-1.296,9.608    c5.88,10.368,10.04,21.384,12.352,32.752c0.752,3.72,4.04,6.4,7.84,6.4H464V344z" fill="#e6e6e6"/><path d="M344,72V56h-16.72c-1.232-7.272-4.08-13.992-8.2-19.768L330.912,24.4L319.6,13.088L307.768,24.92    c-5.776-4.12-12.496-6.968-19.768-8.2V0h-16v16.72c-7.272,1.232-13.992,4.08-19.768,8.192L240.4,13.088L229.088,24.4    l11.832,11.832c-4.12,5.776-6.968,12.496-8.2,19.768H216v16h16.72c1.232,7.272,4.08,13.992,8.2,19.768L229.088,103.6    l11.312,11.312l11.832-11.832c5.776,4.12,12.496,6.968,19.768,8.2V128h16v-16.72c7.272-1.232,13.992-4.08,19.768-8.192    L319.6,114.92l11.312-11.312L319.08,91.776c4.12-5.784,6.968-12.504,8.2-19.776H344z M280,96c-17.648,0-32-14.352-32-32    s14.352-32,32-32s32,14.352,32,32S297.648,96,280,96z" fill="#e6e6e6"/><rect x="272px" y="56px" width="16px" height="16px" fill="#e6e6e6"/></g><g transform="matrix(0.061941951513290405 0 0 0.061941951513290405 318.1339416503906 148.13392639160156)" id="L1_194"><rect x="168px" y="168px" width="16px" height="16px" fill="#e6e6e6"/><rect x="168px" y="296px" width="16px" height="16px" fill="#e6e6e6"/><rect x="168px" y="264px" width="16px" height="16px" fill="#e6e6e6"/><rect x="168px" y="200px" width="16px" height="16px" fill="#e6e6e6"/><rect x="296px" y="168px" width="16px" height="16px" fill="#e6e6e6"/><rect x="296px" y="296px" width="16px" height="16px" fill="#e6e6e6"/><rect x="296px" y="264px" width="16px" height="16px" fill="#e6e6e6"/><rect x="168px" y="232px" width="16px" height="16px" fill="#e6e6e6"/><rect x="296px" y="232px" width="16px" height="16px" fill="#e6e6e6"/><rect x="296px" y="200px" width="16px" height="16px" fill="#e6e6e6"/><rect x="200px" y="168px" width="16px" height="16px" fill="#e6e6e6"/><rect x="264px" y="168px" width="16px" height="16px" fill="#e6e6e6"/><rect x="200px" y="296px" width="16px" height="16px" fill="#e6e6e6"/><rect x="264px" y="296px" width="16px" height="16px" fill="#e6e6e6"/><path d="M264,208h-48c-4.416,0-8,3.576-8,8v48c0,4.424,3.584,8,8,8h48c4.416,0,8-3.576,8-8v-48C272,211.576,268.416,208,264,208z     M256,256h-32v-32h32V256z" fill="#e6e6e6"/><path d="M433.472,248c3.312,9.288,12.112,16,22.528,16c13.232,0,24-10.768,24-24s-10.768-24-24-24    c-10.416,0-19.216,6.712-22.528,16H352v-16h24c2.12,0,4.16-0.84,5.656-2.344L411.312,184h22.16c3.312,9.288,12.112,16,22.528,16    c13.232,0,24-10.768,24-24s-10.768-24-24-24c-10.416,0-19.216,6.712-22.528,16H408c-2.12,0-4.16,0.84-5.656,2.344L372.688,200H352    v-64c0-4.424-3.584-8-8-8h-32v-4.688l61.656-61.656C375.16,60.16,376,58.128,376,56v-9.472c9.288-3.312,16-12.112,16-22.528    c0-13.232-10.768-24-24-24s-24,10.768-24,24c0,10.416,6.712,19.216,16,22.528v6.16l-61.656,61.656    C296.84,115.84,296,117.872,296,120v8h-16v-20.688l29.656-29.656C311.16,76.16,312,74.128,312,72V46.528    c9.288-3.312,16-12.112,16-22.528c0-13.232-10.768-24-24-24s-24,10.768-24,24c0,10.416,6.712,19.216,16,22.528v22.16    l-29.656,29.656C264.84,99.84,264,101.872,264,104v24h-16V46.528c9.288-3.312,16-12.112,16-22.528c0-13.232-10.768-24-24-24    s-24,10.768-24,24c0,10.416,6.712,19.216,16,22.528V128h-16v-24c0-2.128-0.84-4.16-2.344-5.656L184,68.688v-22.16    c9.288-3.312,16-12.112,16-22.528c0-13.232-10.768-24-24-24s-24,10.768-24,24c0,10.416,6.712,19.216,16,22.528V72    c0,2.128,0.84,4.16,2.344,5.656L200,107.312V128h-16v-8c0-2.128-0.84-4.16-2.344-5.656L120,52.688v-6.16    c9.288-3.312,16-12.112,16-22.528c0-13.232-10.768-24-24-24S88,10.768,88,24c0,10.416,6.712,19.216,16,22.528V56    c0,2.128,0.84,4.16,2.344,5.656L168,123.312V128h-32c-4.416,0-8,3.576-8,8v64h-20.688l-29.656-29.656    C76.16,168.84,74.12,168,72,168H46.528c-3.312-9.288-12.112-16-22.528-16c-13.232,0-24,10.768-24,24s10.768,24,24,24    c10.416,0,19.216-6.712,22.528-16h22.16l29.656,29.656C99.84,215.16,101.88,216,104,216h24v16H46.528    c-3.312-9.288-12.112-16-22.528-16c-13.232,0-24,10.768-24,24s10.768,24,24,24c10.416,0,19.216-6.712,22.528-16H128v16h-24    c-2.12,0-4.16,0.84-5.656,2.344L68.688,296h-22.16c-3.312-9.288-12.112-16-22.528-16c-13.232,0-24,10.768-24,24s10.768,24,24,24    c10.416,0,19.216-6.712,22.528-16H72c2.12,0,4.16-0.84,5.656-2.344L107.312,280H128v64c0,4.424,3.584,8,8,8h32v4.688    l-61.656,61.656C104.84,419.84,104,421.872,104,424v9.472c-9.288,3.312-16,12.112-16,22.528c0,13.232,10.768,24,24,24    s24-10.768,24-24c0-10.416-6.712-19.216-16-22.528v-6.16l61.656-61.656C183.16,364.16,184,362.128,184,360v-8h16v20.688    l-29.656,29.656C168.84,403.84,168,405.872,168,408v25.472c-9.288,3.312-16,12.112-16,22.528c0,13.232,10.768,24,24,24    s24-10.768,24-24c0-10.416-6.712-19.216-16-22.528v-22.16l29.656-29.656C215.16,380.16,216,378.128,216,376v-24h16v81.472    c-9.288,3.312-16,12.112-16,22.528c0,13.232,10.768,24,24,24s24-10.768,24-24c0-10.416-6.712-19.216-16-22.528V352h16v24    c0,2.128,0.84,4.16,2.344,5.656L296,411.312v22.16c-9.288,3.312-16,12.112-16,22.528c0,13.232,10.768,24,24,24s24-10.768,24-24    c0-10.416-6.712-19.216-16-22.528V408c0-2.128-0.84-4.16-2.344-5.656L280,372.688V352h16v8c0,2.128,0.84,4.16,2.344,5.656    L360,427.312v6.16c-9.288,3.312-16,12.112-16,22.528c0,13.232,10.768,24,24,24s24-10.768,24-24c0-10.416-6.712-19.216-16-22.528    V424c0-2.128-0.84-4.16-2.344-5.656L312,356.688V352h32c4.416,0,8-3.576,8-8v-64h20.688l29.656,29.656    C403.84,311.16,405.88,312,408,312h25.472c3.312,9.288,12.112,16,22.528,16c13.232,0,24-10.768,24-24s-10.768-24-24-24    c-10.416,0-19.216,6.712-22.528,16h-22.16l-29.656-29.656C380.16,264.84,378.12,264,376,264h-24v-16H433.472z M456,232    c4.408,0,8,3.584,8,8s-3.592,8-8,8c-4.408,0-8-3.584-8-8C448,235.584,451.592,232,456,232z M456,168c4.408,0,8,3.584,8,8    s-3.592,8-8,8c-4.408,0-8-3.584-8-8S451.592,168,456,168z M368,16c4.408,0,8,3.584,8,8s-3.592,8-8,8c-4.408,0-8-3.584-8-8    S363.592,16,368,16z M304,16c4.408,0,8,3.584,8,8s-3.592,8-8,8c-4.408,0-8-3.584-8-8S299.592,16,304,16z M176,32    c-4.408,0-8-3.584-8-8s3.592-8,8-8s8,3.584,8,8S180.408,32,176,32z M112,32c-4.408,0-8-3.584-8-8s3.592-8,8-8s8,3.584,8,8    S116.408,32,112,32z M24,184c-4.408,0-8-3.584-8-8s3.592-8,8-8s8,3.584,8,8S28.408,184,24,184z M24,248c-4.408,0-8-3.584-8-8    c0-4.416,3.592-8,8-8s8,3.584,8,8S28.408,248,24,248z M24,312c-4.408,0-8-3.584-8-8c0-4.416,3.592-8,8-8s8,3.584,8,8    C32,308.416,28.408,312,24,312z M112,464c-4.408,0-8-3.584-8-8c0-4.416,3.592-8,8-8s8,3.584,8,8C120,460.416,116.408,464,112,464z     M176,464c-4.408,0-8-3.584-8-8c0-4.416,3.592-8,8-8s8,3.584,8,8C184,460.416,180.408,464,176,464z M304,448c4.408,0,8,3.584,8,8    c0,4.416-3.592,8-8,8c-4.408,0-8-3.584-8-8C296,451.584,299.592,448,304,448z M368,448c4.408,0,8,3.584,8,8c0,4.416-3.592,8-8,8    c-4.408,0-8-3.584-8-8C360,451.584,363.592,448,368,448z M240,16c4.408,0,8,3.584,8,8s-3.592,8-8,8c-4.408,0-8-3.584-8-8    S235.592,16,240,16z M240,464c-4.408,0-8-3.584-8-8c0-4.416,3.592-8,8-8s8,3.584,8,8C248,460.416,244.408,464,240,464z M336,336    H144V144h192V336z M456,296c4.408,0,8,3.584,8,8c0,4.416-3.592,8-8,8c-4.408,0-8-3.584-8-8C448,299.584,451.592,296,456,296z" fill="#e6e6e6"/><rect x="232px" y="168px" width="16px" height="16px" fill="#e6e6e6"/><rect x="232px" y="296px" width="16px" height="16px" fill="#e6e6e6"/></g><g transform="matrix(0.0664321705698967 0 0 0.0664321705698967 44.01498031616211 307.0344543457031)" id="L1_195"><path d="M437.333,212.715c5.888,0,10.667-4.779,10.667-10.667v-128c0-29.397-23.936-53.333-53.333-53.333H53.333    C23.936,20.715,0,44.651,0,74.048v362.667c0,29.397,23.936,53.333,53.333,53.333h341.333c29.397,0,53.333-23.936,53.333-53.333    v-64c0-5.888-4.779-10.667-10.667-10.667s-10.667,4.779-10.667,10.667v64c0,17.643-14.357,32-32,32H53.333    c-17.643,0-32-14.357-32-32V127.381h405.333v74.667C426.667,207.936,431.445,212.715,437.333,212.715z M21.333,106.048v-32    c0-17.643,14.357-32,32-32h341.333c17.643,0,32,14.357,32,32v32H21.333z" fill="#e6e6e6"/><circle cx="53" cy="74" r="10" fill="#e6e6e6"/><circle cx="96" cy="74" r="10" fill="#e6e6e6"/><circle cx="138" cy="74" r="10" fill="#e6e6e6"/><path d="M510.763,325.141c-2.027-4.352-20.352-53.909-31.424-84.117c-1.515-4.181-5.504-6.976-9.963-6.997    c-0.021,0-0.043,0-0.043,0c-4.437,0-8.427,2.752-9.984,6.912l-32,85.333c-2.069,5.525,0.725,11.669,6.229,13.739    c5.483,2.069,11.669-0.704,13.739-6.229l5.397-14.4h33.173c7.36,18.133,10.304,21.568,14.251,21.568    c0.917,0,1.92-0.171,3.051-0.405l-1.963-10.965L510.763,325.141z M460.715,298.048l8.491-22.677    c3.221,8.768,5.931,16.064,8.427,22.677H460.715z" fill="#e6e6e6"/><path d="M340.096,325.141c-2.005-4.352-20.331-53.909-31.403-84.117c-1.515-4.181-5.504-6.976-9.963-6.997    c-0.021,0-0.043,0-0.043,0c-4.437,0-8.427,2.752-9.984,6.912l-32,85.333c-2.069,5.525,0.725,11.669,6.229,13.739    c5.483,2.069,11.669-0.704,13.739-6.229l5.376-14.4h33.173c7.36,18.133,10.304,21.568,14.251,21.568    c0.917,0,1.92-0.171,3.051-0.405l-1.963-10.965L340.096,325.141z M290.048,298.048l8.491-22.677    c3.221,8.768,5.931,16.064,8.427,22.677H290.048z" fill="#e6e6e6"/><path d="M419.755,234.731c-5.547-2.048-11.669,0.704-13.76,6.229l-22.016,58.709l-22.016-58.709    c-2.069-5.504-8.235-8.256-13.739-6.229c-5.504,2.069-8.299,8.213-6.229,13.739l32,85.333c1.557,4.16,5.547,6.912,10.005,6.912    c4.459,0,8.427-2.752,9.984-6.912l32-85.333C428.053,242.944,425.259,236.8,419.755,234.731z" fill="#e6e6e6"/><path d="M224,234.048c-5.888,0-10.667,4.779-10.667,10.667v64c0,5.888-4.779,10.667-10.667,10.667S192,314.603,192,308.715    s-4.779-10.667-10.667-10.667s-10.667,4.779-10.667,10.667c0,17.643,14.357,32,32,32s32-14.357,32-32v-64    C234.667,238.827,229.888,234.048,224,234.048z" fill="#e6e6e6"/></g><g transform="matrix(0.06629133224487305 0.011048558168113232 -0.011048558168113232 0.06629133224487305 4.857747554779053 61.20089340209961)" id="L1_196"><path d="M117.333,298.668c-5.888,0-10.667,4.779-10.667,10.667v32H64v-32c0-5.888-4.779-10.667-10.667-10.667    s-10.667,4.779-10.667,10.667v85.333c0,5.888,4.779,10.667,10.667,10.667S64,400.556,64,394.668v-32h42.667v32    c0,5.888,4.779,10.667,10.667,10.667S128,400.556,128,394.668v-85.333C128,303.447,123.221,298.668,117.333,298.668z" fill="#e6e6e6"/><path d="M202.667,298.668H160c-5.888,0-10.667,4.779-10.667,10.667s4.779,10.667,10.667,10.667h10.667v74.667    c0,5.888,4.779,10.667,10.667,10.667S192,400.556,192,394.668v-74.667h10.667c5.888,0,10.667-4.779,10.667-10.667    S208.555,298.668,202.667,298.668z" fill="#e6e6e6"/><path d="M288,298.668h-42.667c-5.888,0-10.667,4.779-10.667,10.667s4.779,10.667,10.667,10.667H256v74.667    c0,5.888,4.779,10.667,10.667,10.667s10.667-4.779,10.667-10.667v-74.667H288c5.888,0,10.667-4.779,10.667-10.667    S293.888,298.668,288,298.668z" fill="#e6e6e6"/><path d="M352,298.668h-21.333c-5.888,0-10.667,4.779-10.667,10.667v85.333c0,5.888,4.779,10.667,10.667,10.667    s10.667-4.779,10.667-10.667v-32H352c17.643,0,32-14.357,32-32C384,313.025,369.643,298.668,352,298.668z M352,341.335h-10.667    v-21.333H352c5.867,0,10.667,4.779,10.667,10.667S357.867,341.335,352,341.335z" fill="#e6e6e6"/><path d="M503.915,298.988c-5.781-1.429-11.52,2.027-12.928,7.765l-21.333,85.333c-1.429,5.717,2.027,11.499,7.765,12.928    c0.875,0.213,1.728,0.32,2.581,0.32c4.8,0,9.152-3.221,10.347-8.085l21.333-85.333    C513.109,306.199,509.653,300.417,503.915,298.988z" fill="#e6e6e6"/><path d="M461.248,298.988c-5.803-1.429-11.52,2.027-12.928,7.765l-21.333,85.333c-1.429,5.717,2.027,11.499,7.765,12.928    c0.875,0.213,1.728,0.32,2.581,0.32c4.8,0,9.152-3.221,10.347-8.085l21.333-85.333    C470.443,306.199,466.987,300.417,461.248,298.988z" fill="#e6e6e6"/><circle cx="416" cy="330" r="10" fill="#e6e6e6"/><circle cx="416" cy="373" r="10" fill="#e6e6e6"/><path d="M373.333,277.335c5.888,0,10.667-4.779,10.667-10.667v-256c0-5.888-4.779-10.667-10.667-10.667H138.667    c-1.429,0-2.816,0.299-4.117,0.832c-0.619,0.256-1.088,0.725-1.643,1.088c-0.597,0.384-1.28,0.683-1.792,1.195l-128,128    c-0.491,0.491-0.768,1.152-1.152,1.728c-0.384,0.576-0.875,1.067-1.131,1.707C0.299,135.852,0,137.239,0,138.668v362.667    c0,5.888,4.779,10.667,10.667,10.667h362.667c5.888,0,10.667-4.779,10.667-10.667v-64c0-5.888-4.779-10.667-10.667-10.667    c-5.888,0-10.667,4.779-10.667,10.667v53.333H21.333V149.334h117.333c5.888,0,10.667-4.779,10.667-10.667V21.334h213.333v245.333    C362.667,272.556,367.445,277.335,373.333,277.335z M128,128.001H36.416L128,36.417V128.001z" fill="#e6e6e6"/></g><path d="M508.885,109.819c-16.149-16.149-57.109-3.221-79.659,5.675l-32.704-32.704c8.896-22.549,21.803-63.552,5.696-79.659    c-4.16-4.16-10.923-4.16-15.083,0c-4.16,4.16-4.16,10.923,0,15.083c4.053,4.053,0.085,29.845-10.709,57.429l-68.587,9.792    c-5.269,0.747-9.173,5.248-9.173,10.56c0,3.605,0.213,7.147,0.533,10.667h-57.536c-10.219,0-19.904,2.944-28.331,8.256V74.661    c0-5.888-4.779-10.667-10.667-10.667S192,68.773,192,74.661v59.563l-53.355,53.355l-35.115-35.115    c-4.16-4.16-10.923-4.16-15.083,0c-4.16,4.16-4.16,10.923,0,15.083l35.115,35.115l-31.445,31.467    c-6.507,6.507-11.605,14.144-15.957,22.165c-0.512-0.085-0.96-0.299-1.493-0.299h-64C4.779,255.995,0,260.773,0,266.661    s4.779,10.667,10.667,10.667h57.024C65.515,285.371,64,293.605,64,302.011v49.984c0,26.304,10.667,50.133,27.861,67.477    c0.107,0.128,0.149,0.277,0.256,0.405c0.107,0.107,0.277,0.149,0.384,0.256c17.365,17.195,41.195,27.861,67.499,27.861h49.984    c8.491,0,16.683-1.472,24.683-3.605v56.939c0,5.888,4.779,10.667,10.667,10.667S256,507.216,256,501.328v-64    c0-0.491-0.213-0.917-0.277-1.387c7.979-4.352,15.573-9.472,22.165-16.064l31.445-31.445l35.115,35.115    c2.091,2.069,4.821,3.115,7.552,3.115c2.731,0,5.461-1.045,7.531-3.115c4.16-4.16,4.16-10.923,0-15.083l-35.115-35.136    l53.333-53.355h59.584c5.888,0,10.667-4.779,10.667-10.667s-4.779-10.645-10.667-10.645h-40.277    c5.312-8.427,8.277-18.155,8.277-28.352v-57.536c3.52,0.32,7.061,0.555,10.667,0.555c5.312,0,9.813-3.904,10.581-9.131    l9.792-68.608c27.563-10.795,53.376-14.763,57.429-10.688c4.16,4.16,10.923,4.16,15.083,0    C513.045,120.741,513.045,113.979,508.885,109.819z M85.333,351.995v-49.984c0-19.648,7.979-38.891,21.867-52.8l38.976-38.976    c0,0,0.021,0,0.021-0.021c0-0.021,0-0.021,0.021-0.021l63.915-63.957c0.043-0.043,0.085-0.064,0.107-0.107l8.789-8.789    c5.973-5.931,14.208-9.344,22.635-9.344h61.547c4.544,15.979,12.309,30.613,22.677,43.029L100.395,396.496    C91.072,384.037,85.333,368.72,85.333,351.995z M384,270.309c0,8.555-3.328,16.576-9.365,22.635l-8.832,8.832l-63.957,63.979    c-0.021,0.021-0.021,0.021-0.043,0.021c-0.021,0-0.021,0.021-0.021,0.043l-38.955,38.955    c-14.144,14.123-32.875,21.888-52.843,21.888H160c-16.747,0-32.043-5.739-44.501-15.083l225.493-225.472    c12.416,10.368,27.029,18.133,43.008,22.656V270.309z M406.784,191.568c-45.611-4.331-82.005-40.747-86.357-86.357l59.797-8.555    l35.115,35.115L406.784,191.568z" transform="matrix(0.04971868917346001 0.011048597283661366 -0.011048597283661366 0.04971868917346001 269.1001281738281 114.44312286376953)" id="L1_197" fill="#e6e6e6"/><g transform="matrix(0.050898101180791855 -0.012724525295197964 0.012724525295197964 0.050898101180791855 20.712614059448242 174.22756958007812)" id="L1_198"><path d="M487.915,3.52C485.888,1.28,483.008,0,480,0H32c-3.029,0-5.888,1.28-7.915,3.52c-2.027,2.219-3.008,5.205-2.709,8.213    L64.043,438.4c0.405,4.16,3.243,7.723,7.232,9.045l192,64c1.088,0.384,2.24,0.555,3.371,0.555c1.28,0,2.539-0.235,3.776-0.683    l170.667-64c3.797-1.408,6.464-4.885,6.869-8.917l42.667-426.667C490.923,8.747,489.941,5.739,487.915,3.52z M427.349,429.675    l-160.917,60.352L84.565,429.397L43.755,21.333h424.427L427.349,429.675z" fill="#e6e6e6"/><path d="M403.051,110.763c-2.027-2.581-5.12-4.096-8.405-4.096H287.979c-5.888,0-10.667,4.779-10.667,10.667v128    c0,5.888,4.779,10.667,10.667,10.667h72.555l-17.92,98.539l-58.005,19.349c-5.589,1.856-8.597,7.893-6.741,13.483    c1.493,4.48,5.653,7.296,10.112,7.296c1.109,0,2.24-0.171,3.392-0.533l64-21.333c3.691-1.237,6.421-4.373,7.104-8.213    l21.333-117.333c0.576-3.115-0.277-6.315-2.304-8.747s-5.035-3.84-8.192-3.84h-74.667V128h82.325l-7.339,29.419    c-1.429,5.717,2.048,11.499,7.765,12.928c5.653,1.408,11.499-2.048,12.928-7.765l10.667-42.667    C405.781,116.715,405.077,113.344,403.051,110.763z" fill="#e6e6e6"/><path d="M245.291,106.667h-128c-5.888,0-10.667,4.779-10.667,10.667S111.403,128,117.291,128h117.333v241.856l-54.805-15.659    l-9.387-46.955c-1.152-5.76-6.677-9.536-12.544-8.363c-5.76,1.152-9.515,6.763-8.363,12.544l10.667,53.333    c0.789,3.925,3.691,7.061,7.531,8.171l74.667,21.333c0.96,0.277,1.941,0.405,2.923,0.405c2.283,0,4.544-0.747,6.4-2.155    c2.667-2.005,4.245-5.163,4.245-8.512V117.333C255.957,111.445,251.179,106.667,245.291,106.667z" fill="#e6e6e6"/></g><g transform="matrix(0.08209770917892456 -0.024986259639263153 0.024986259639263153 0.08209770917892456 68.13922119140625 200.20758056640625)" id="L1_200"><path d="m383.5 46c0-25.405-20.595-46-46-46h-192c-25.405 0-46 20.595-46 46v391c0 25.405 20.595 46 46 46h192c25.405 0 46-20.595 46-46zm-12 331h-260v-286h260zm-33.857 95h-192.286c-18.748 0-33.857-15.622-33.857-34.369v-48.631h260v48.631c0 18.747-15.109 34.369-33.857 34.369zm33.857-393h-260v-32.631c0-18.747 15.109-34.369 33.857-34.369h192.286c18.748 0 33.857 15.622 33.857 34.369z" fill="#e6e6e6"/><path d="m275.535 37h-68.07c-3.314 0-6 2.686-6 6s2.686 6 6 6h68.07c3.314 0 6-2.686 6-6s-2.686-6-6-6z" fill="#e6e6e6"/><path d="m241.5 403.56c-14.881 0-26.945 12.064-26.945 26.945s12.064 26.945 26.945 26.945 26.945-12.064 26.945-26.945c-.017-14.874-12.071-26.928-26.945-26.945zm0 41.89c-8.254 0-14.945-6.691-14.945-14.945s6.691-14.945 14.945-14.945 14.945 6.691 14.945 14.945c-.009 8.25-6.695 14.936-14.945 14.945z" fill="#e6e6e6"/><path d="m167.375 246.833 47.394 35.838c2.629 2.017 6.396 1.521 8.413-1.108s1.521-6.396-1.108-8.413c-.022-.017-.044-.034-.066-.05l-41.065-31.052 41.064-31.048c2.657-1.98 3.206-5.739 1.226-8.396s-5.739-3.206-8.396-1.226c-.023.017-.045.034-.068.051l-47.394 35.837c-2.643 1.999-3.165 5.762-1.166 8.405.333.441.726.833 1.166 1.166z" fill="#e6e6e6"/><path d="m259.826 281.5c1.998 2.64 5.758 3.162 8.4 1.167l47.394-35.838c2.643-1.999 3.165-5.762 1.166-8.405-.333-.441-.726-.833-1.166-1.166l-47.394-35.837c-2.645-1.997-6.409-1.472-8.406 1.173s-1.472 6.409 1.173 8.406l41.065 31.052-41.065 31.048c-2.64 1.998-3.162 5.758-1.167 8.4z" fill="#e6e6e6"/><path d="m232.514 301.716c3.276.496 6.334-1.759 6.83-5.035l16.177-106.893c.497-3.276-1.756-6.335-5.033-6.833-3.276-.497-6.335 1.756-6.832 5.033l-16.177 106.897c-.496 3.276 1.758 6.335 5.034 6.831z" fill="#e6e6e6"/><path d="m241.5 352.4c60.972 0 110.4-49.428 110.4-110.4s-49.428-110.4-110.4-110.4-110.4 49.428-110.4 110.4c.067 60.944 49.456 110.333 110.4 110.4zm0-208.8c54.345 0 98.4 44.055 98.4 98.4s-44.055 98.4-98.4 98.4-98.4-44.055-98.4-98.4c.06-54.32 44.08-98.34 98.4-98.4z" fill="#e6e6e6"/></g><g transform="matrix(0.07628122717142105 0 0 0.07628122717142105 288.9642639160156 255.93032836914062)" id="L1_202"><path d="M88,128.001H56c-13.232,0-24,10.768-24,24v80c0,4.416,3.576,8,8,8s8-3.584,8-8v-24h48v24c0,4.416,3.576,8,8,8s8-3.584,8-8    v-80C112,138.769,101.232,128.001,88,128.001z M96,192.001H48v-40c0-4.408,3.584-8,8-8h32c4.416,0,8,3.592,8,8V192.001z" fill="#e6e6e6"/><path d="M192,128.001h-32c-4.424,0-8,3.584-8,8v96c0,4.416,3.576,8,8,8s8-3.584,8-8v-24h24c22.056,0,40-17.944,40-40    C232,145.945,214.056,128.001,192,128.001z M192,192.001h-24v-48h24c13.232,0,24,10.768,24,24S205.232,192.001,192,192.001z" fill="#e6e6e6"/><path d="M328,224.001h-24v-80h24c4.424,0,8-3.584,8-8s-3.576-8-8-8h-64c-4.424,0-8,3.584-8,8s3.576,8,8,8h24v80h-24    c-4.424,0-8,3.584-8,8c0,4.416,3.576,8,8,8h64c4.424,0,8-3.584,8-8C336,227.585,332.424,224.001,328,224.001z" fill="#e6e6e6"/><path d="M344,48.001H219.312l-29.656-29.656c-3.128-3.128-8.184-3.128-11.312,0l-29.656,29.656H24c-13.232,0-24,10.768-24,24v24    c0,4.416,3.576,8,8,8s8-3.584,8-8v-24c0-4.408,3.584-8,8-8h128c2.128,0,4.16-0.84,5.656-2.344L184,35.313l26.344,26.344    c1.496,1.504,3.528,2.344,5.656,2.344h128c4.416,0,8,3.592,8,8v24c0,4.416,3.576,8,8,8s8-3.584,8-8v-24    C368,58.769,357.232,48.001,344,48.001z" fill="#e6e6e6"/><path d="M360,264.001c-4.424,0-8,3.584-8,8v24c0,4.408-3.584,8-8,8H216c-2.128,0-4.16,0.84-5.656,2.344L184,332.689    l-26.344-26.344c-1.496-1.504-3.528-2.344-5.656-2.344H24c-4.416,0-8-3.592-8-8v-24c0-4.416-3.576-8-8-8s-8,3.584-8,8v24    c0,13.232,10.768,24,24,24h124.688l29.656,29.656c1.56,1.56,3.608,2.344,5.656,2.344c2.048,0,4.096-0.784,5.656-2.344    l29.656-29.656H344c13.232,0,24-10.768,24-24v-24C368,267.585,364.424,264.001,360,264.001z" fill="#e6e6e6"/></g></defs><g fi:class="KUsePattern" opacity="0.86"><pattern id="pattern_L1_178" width="350" height="350" patternUnits="userSpaceOnUse"><use xlink:href="#L1_178" x="-350" y="-350"/><use xlink:href="#L1_178" x="0" y="-350"/><use xlink:href="#L1_178" x="350" y="-350"/><use xlink:href="#L1_178" x="-350" y="0"/><use xlink:href="#L1_178" x="0" y="0"/><use xlink:href="#L1_178" x="350" y="0"/><use xlink:href="#L1_178" x="-350" y="350"/><use xlink:href="#L1_178" x="0" y="350"/><use xlink:href="#L1_178" x="350" y="350"/></pattern><rect x="0" y="0" width="100%" height="100%" fill="url(#pattern_L1_178)"/></g><g fi:class="KUsePattern"><pattern id="pattern_L1_177" width="350" height="350" patternUnits="userSpaceOnUse"><use xlink:href="#L1_177" x="-350" y="-350"/><use xlink:href="#L1_177" x="0" y="-350"/><use xlink:href="#L1_177" x="350" y="-350"/><use xlink:href="#L1_177" x="-350" y="0"/><use xlink:href="#L1_177" x="0" y="0"/><use xlink:href="#L1_177" x="350" y="0"/><use xlink:href="#L1_177" x="-350" y="350"/><use xlink:href="#L1_177" x="0" y="350"/><use xlink:href="#L1_177" x="350" y="350"/></pattern><rect x="0" y="0" width="100%" height="100%" fill="url(#pattern_L1_177)"/></g><g fi:class="KUsePattern"><pattern id="pattern_L1_179" width="350" height="350" patternUnits="userSpaceOnUse"><use xlink:href="#L1_179" x="-350" y="-350"/><use xlink:href="#L1_179" x="0" y="-350"/><use xlink:href="#L1_179" x="350" y="-350"/><use xlink:href="#L1_179" x="-350" y="0"/><use xlink:href="#L1_179" x="0" y="0"/><use xlink:href="#L1_179" x="350" y="0"/><use xlink:href="#L1_179" x="-350" y="350"/><use xlink:href="#L1_179" x="0" y="350"/><use xlink:href="#L1_179" x="350" y="350"/></pattern><rect x="0" y="0" width="100%" height="100%" fill="url(#pattern_L1_179)"/></g><g fi:class="KUsePattern" opacity="1"><pattern id="pattern_L1_180" width="350" height="350" patternUnits="userSpaceOnUse"><use xlink:href="#L1_180" x="-350" y="-350"/><use xlink:href="#L1_180" x="0" y="-350"/><use xlink:href="#L1_180" x="350" y="-350"/><use xlink:href="#L1_180" x="-350" y="0"/><use xlink:href="#L1_180" x="0" y="0"/><use xlink:href="#L1_180" x="350" y="0"/><use xlink:href="#L1_180" x="-350" y="350"/><use xlink:href="#L1_180" x="0" y="350"/><use xlink:href="#L1_180" x="350" y="350"/></pattern><rect x="0" y="0" width="100%" height="100%" fill="url(#pattern_L1_180)"/></g><g fi:class="KUsePattern"><pattern id="pattern_L1_181" width="350" height="350" patternUnits="userSpaceOnUse"><use xlink:href="#L1_181" x="-350" y="-350"/><use xlink:href="#L1_181" x="0" y="-350"/><use xlink:href="#L1_181" x="350" y="-350"/><use xlink:href="#L1_181" x="-350" y="0"/><use xlink:href="#L1_181" x="0" y="0"/><use xlink:href="#L1_181" x="350" y="0"/><use xlink:href="#L1_181" x="-350" y="350"/><use xlink:href="#L1_181" x="0" y="350"/><use xlink:href="#L1_181" x="350" y="350"/></pattern><rect x="0" y="0" width="100%" height="100%" fill="url(#pattern_L1_181)"/></g><g fi:class="KUsePattern" opacity="1"><pattern id="pattern_L1_182" width="350" height="350" patternUnits="userSpaceOnUse"><use xlink:href="#L1_182" x="-350" y="-350"/><use xlink:href="#L1_182" x="0" y="-350"/><use xlink:href="#L1_182" x="350" y="-350"/><use xlink:href="#L1_182" x="-350" y="0"/><use xlink:href="#L1_182" x="0" y="0"/><use xlink:href="#L1_182" x="350" y="0"/><use xlink:href="#L1_182" x="-350" y="350"/><use xlink:href="#L1_182" x="0" y="350"/><use xlink:href="#L1_182" x="350" y="350"/></pattern><rect x="0" y="0" width="100%" height="100%" fill="url(#pattern_L1_182)"/></g><g fi:class="KUsePattern" opacity="1"><pattern id="pattern_L1_184" width="350" height="350" patternUnits="userSpaceOnUse"><use xlink:href="#L1_184" x="-350" y="-350"/><use xlink:href="#L1_184" x="0" y="-350"/><use xlink:href="#L1_184" x="350" y="-350"/><use xlink:href="#L1_184" x="-350" y="0"/><use xlink:href="#L1_184" x="0" y="0"/><use xlink:href="#L1_184" x="350" y="0"/><use xlink:href="#L1_184" x="-350" y="350"/><use xlink:href="#L1_184" x="0" y="350"/><use xlink:href="#L1_184" x="350" y="350"/></pattern><rect x="0" y="0" width="100%" height="100%" fill="url(#pattern_L1_184)"/></g><g fi:class="KUsePattern"><pattern id="pattern_L1_187" width="350" height="350" patternUnits="userSpaceOnUse"><use xlink:href="#L1_187" x="-350" y="-350"/><use xlink:href="#L1_187" x="0" y="-350"/><use xlink:href="#L1_187" x="350" y="-350"/><use xlink:href="#L1_187" x="-350" y="0"/><use xlink:href="#L1_187" x="0" y="0"/><use xlink:href="#L1_187" x="350" y="0"/><use xlink:href="#L1_187" x="-350" y="350"/><use xlink:href="#L1_187" x="0" y="350"/><use xlink:href="#L1_187" x="350" y="350"/></pattern><rect x="0" y="0" width="100%" height="100%" fill="url(#pattern_L1_187)"/></g><g fi:class="KUsePattern"><pattern id="pattern_L1_188" width="350" height="350" patternUnits="userSpaceOnUse"><use xlink:href="#L1_188" x="-350" y="-350"/><use xlink:href="#L1_188" x="0" y="-350"/><use xlink:href="#L1_188" x="350" y="-350"/><use xlink:href="#L1_188" x="-350" y="0"/><use xlink:href="#L1_188" x="0" y="0"/><use xlink:href="#L1_188" x="350" y="0"/><use xlink:href="#L1_188" x="-350" y="350"/><use xlink:href="#L1_188" x="0" y="350"/><use xlink:href="#L1_188" x="350" y="350"/></pattern><rect x="0" y="0" width="100%" height="100%" fill="url(#pattern_L1_188)"/></g><g fi:class="KUsePattern"><pattern id="pattern_L1_189" width="350" height="350" patternUnits="userSpaceOnUse"><use xlink:href="#L1_189" x="-350" y="-350"/><use xlink:href="#L1_189" x="0" y="-350"/><use xlink:href="#L1_189" x="350" y="-350"/><use xlink:href="#L1_189" x="-350" y="0"/><use xlink:href="#L1_189" x="0" y="0"/><use xlink:href="#L1_189" x="350" y="0"/><use xlink:href="#L1_189" x="-350" y="350"/><use xlink:href="#L1_189" x="0" y="350"/><use xlink:href="#L1_189" x="350" y="350"/></pattern><rect x="0" y="0" width="100%" height="100%" fill="url(#pattern_L1_189)"/></g><g fi:class="KUsePattern"><pattern id="pattern_L1_191" width="350" height="350" patternUnits="userSpaceOnUse"><use xlink:href="#L1_191" x="-350" y="-350"/><use xlink:href="#L1_191" x="0" y="-350"/><use xlink:href="#L1_191" x="350" y="-350"/><use xlink:href="#L1_191" x="-350" y="0"/><use xlink:href="#L1_191" x="0" y="0"/><use xlink:href="#L1_191" x="350" y="0"/><use xlink:href="#L1_191" x="-350" y="350"/><use xlink:href="#L1_191" x="0" y="350"/><use xlink:href="#L1_191" x="350" y="350"/></pattern><rect x="0" y="0" width="100%" height="100%" fill="url(#pattern_L1_191)"/></g><g fi:class="KUsePattern"><pattern id="pattern_L1_192" width="350" height="350" patternUnits="userSpaceOnUse"><use xlink:href="#L1_192" x="-350" y="-350"/><use xlink:href="#L1_192" x="0" y="-350"/><use xlink:href="#L1_192" x="350" y="-350"/><use xlink:href="#L1_192" x="-350" y="0"/><use xlink:href="#L1_192" x="0" y="0"/><use xlink:href="#L1_192" x="350" y="0"/><use xlink:href="#L1_192" x="-350" y="350"/><use xlink:href="#L1_192" x="0" y="350"/><use xlink:href="#L1_192" x="350" y="350"/></pattern><rect x="0" y="0" width="100%" height="100%" fill="url(#pattern_L1_192)"/></g><g fi:class="KUsePattern"><pattern id="pattern_L1_193" width="350" height="350" patternUnits="userSpaceOnUse"><use xlink:href="#L1_193" x="-350" y="-350"/><use xlink:href="#L1_193" x="0" y="-350"/><use xlink:href="#L1_193" x="350" y="-350"/><use xlink:href="#L1_193" x="-350" y="0"/><use xlink:href="#L1_193" x="0" y="0"/><use xlink:href="#L1_193" x="350" y="0"/><use xlink:href="#L1_193" x="-350" y="350"/><use xlink:href="#L1_193" x="0" y="350"/><use xlink:href="#L1_193" x="350" y="350"/></pattern><rect x="0" y="0" width="100%" height="100%" fill="url(#pattern_L1_193)"/></g><g fi:class="KUsePattern"><pattern id="pattern_L1_194" width="350" height="350" patternUnits="userSpaceOnUse"><use xlink:href="#L1_194" x="-350" y="-350"/><use xlink:href="#L1_194" x="0" y="-350"/><use xlink:href="#L1_194" x="350" y="-350"/><use xlink:href="#L1_194" x="-350" y="0"/><use xlink:href="#L1_194" x="0" y="0"/><use xlink:href="#L1_194" x="350" y="0"/><use xlink:href="#L1_194" x="-350" y="350"/><use xlink:href="#L1_194" x="0" y="350"/><use xlink:href="#L1_194" x="350" y="350"/></pattern><rect x="0" y="0" width="100%" height="100%" fill="url(#pattern_L1_194)"/></g><g fi:class="KUsePattern"><pattern id="pattern_L1_195" width="350" height="350" patternUnits="userSpaceOnUse"><use xlink:href="#L1_195" x="-350" y="-350"/><use xlink:href="#L1_195" x="0" y="-350"/><use xlink:href="#L1_195" x="350" y="-350"/><use xlink:href="#L1_195" x="-350" y="0"/><use xlink:href="#L1_195" x="0" y="0"/><use xlink:href="#L1_195" x="350" y="0"/><use xlink:href="#L1_195" x="-350" y="350"/><use xlink:href="#L1_195" x="0" y="350"/><use xlink:href="#L1_195" x="350" y="350"/></pattern><rect x="0" y="0" width="100%" height="100%" fill="url(#pattern_L1_195)"/></g><g fi:class="KUsePattern"><pattern id="pattern_L1_196" width="350" height="350" patternUnits="userSpaceOnUse"><use xlink:href="#L1_196" x="-350" y="-350"/><use xlink:href="#L1_196" x="0" y="-350"/><use xlink:href="#L1_196" x="350" y="-350"/><use xlink:href="#L1_196" x="-350" y="0"/><use xlink:href="#L1_196" x="0" y="0"/><use xlink:href="#L1_196" x="350" y="0"/><use xlink:href="#L1_196" x="-350" y="350"/><use xlink:href="#L1_196" x="0" y="350"/><use xlink:href="#L1_196" x="350" y="350"/></pattern><rect x="0" y="0" width="100%" height="100%" fill="url(#pattern_L1_196)"/></g><g fi:class="KUsePattern"><pattern id="pattern_L1_197" width="350" height="350" patternUnits="userSpaceOnUse"><use xlink:href="#L1_197" x="-350" y="-350"/><use xlink:href="#L1_197" x="0" y="-350"/><use xlink:href="#L1_197" x="350" y="-350"/><use xlink:href="#L1_197" x="-350" y="0"/><use xlink:href="#L1_197" x="0" y="0"/><use xlink:href="#L1_197" x="350" y="0"/><use xlink:href="#L1_197" x="-350" y="350"/><use xlink:href="#L1_197" x="0" y="350"/><use xlink:href="#L1_197" x="350" y="350"/></pattern><rect x="0" y="0" width="100%" height="100%" fill="url(#pattern_L1_197)"/></g><g fi:class="KUsePattern"><pattern id="pattern_L1_198" width="350" height="350" patternUnits="userSpaceOnUse"><use xlink:href="#L1_198" x="-350" y="-350"/><use xlink:href="#L1_198" x="0" y="-350"/><use xlink:href="#L1_198" x="350" y="-350"/><use xlink:href="#L1_198" x="-350" y="0"/><use xlink:href="#L1_198" x="0" y="0"/><use xlink:href="#L1_198" x="350" y="0"/><use xlink:href="#L1_198" x="-350" y="350"/><use xlink:href="#L1_198" x="0" y="350"/><use xlink:href="#L1_198" x="350" y="350"/></pattern><rect x="0" y="0" width="100%" height="100%" fill="url(#pattern_L1_198)"/></g><g fi:class="KUsePattern"><pattern id="pattern_L1_200" width="350" height="350" patternUnits="userSpaceOnUse"><use xlink:href="#L1_200" x="-350" y="-350"/><use xlink:href="#L1_200" x="0" y="-350"/><use xlink:href="#L1_200" x="350" y="-350"/><use xlink:href="#L1_200" x="-350" y="0"/><use xlink:href="#L1_200" x="0" y="0"/><use xlink:href="#L1_200" x="350" y="0"/><use xlink:href="#L1_200" x="-350" y="350"/><use xlink:href="#L1_200" x="0" y="350"/><use xlink:href="#L1_200" x="350" y="350"/></pattern><rect x="0" y="0" width="100%" height="100%" fill="url(#pattern_L1_200)"/></g><g fi:class="KUsePattern"><pattern id="pattern_L1_202" width="350" height="350" patternUnits="userSpaceOnUse"><use xlink:href="#L1_202" x="-350" y="-350"/><use xlink:href="#L1_202" x="0" y="-350"/><use xlink:href="#L1_202" x="350" y="-350"/><use xlink:href="#L1_202" x="-350" y="0"/><use xlink:href="#L1_202" x="0" y="0"/><use xlink:href="#L1_202" x="350" y="0"/><use xlink:href="#L1_202" x="-350" y="350"/><use xlink:href="#L1_202" x="0" y="350"/><use xlink:href="#L1_202" x="350" y="350"/></pattern><rect x="0" y="0" width="100%" height="100%" fill="url(#pattern_L1_202)"/></g></svg>